<?xml version="1.0" encoding="utf-8"?>
<!-- Generator: Adobe Illustrator 26.5.0, SVG Export Plug-In . SVG Version: 6.00 Build 0)  -->
<svg version="1.1" id="Calque_1" xmlns="http://www.w3.org/2000/svg" xmlns:xlink="http://www.w3.org/1999/xlink" x="0px" y="0px"
	 viewBox="0 0 113.4 113.4" style="enable-background:new 0 0 113.4 113.4;" xml:space="preserve">
<style type="text/css">
	.st0{fill:#BA191A;}
</style>
<g>
	<path class="st0" d="M95.9,38L74,37.9c-1,0-1.2,0.1-1.8,0.2l-0.5,0.1c-0.1,0-0.1,0-0.2,0C70.8,38.1,70,38,69.3,38H58.1l-1.5,2.5
		l0.3,0.3l-1.5,1.1l1.4,0.9l-1.3,1l1.4,1.1L55.8,46l2.6,1.3c0.4,0.2,1,0.1,1.4-0.2h2.3c-0.4,1-0.6,1.8-0.6,3.3
		c0,0.9,0.1,1.8,0.3,2.6h-2.4c-0.2-0.1-0.4-0.1-0.7-0.1l-3.8,0.6l1.7,1.5l-1,0.6l0.9,1.3l-1.4,0.9l0.1-0.4l-1.7-0.1l0.2-1.5
		l-1.3-0.1l0.6-2.1l-3.5,1.2c-0.3,0.1-0.5,0.3-0.7,0.5l-2,1.1c-0.3-0.8-0.6-1.6-1.1-2.4c-0.7-1.2-1.2-1.9-1.9-2.5l2.5-1.5
		c0.4-0.2,0.5-0.5,0.6-0.9l1.2-1.8l-1.5-0.4l0.7-1.7L45.8,45l0.7-1.5l-1.8-0.2l0.1-0.4l-2.5-1.5l-9.7,5.7c-0.9,0.5-1.7,1.1-2.4,1.8
		C30.1,49,30,49,29.9,49c-0.3,0.1-0.5,0.2-0.7,0.3c-0.1,0.1-0.2,0.2-0.4,0.3L9.9,60.5C7,62.2,5,64.9,4.1,68.1
		c-0.8,3.2-0.4,6.6,1.3,9.5c2.3,4,6.5,6.2,10.8,6.2c2.1,0,4.2-0.6,6.2-1.7l18.9-11c0.3-0.1,0.5-0.3,0.7-0.5c0.1,0,0.3-0.1,0.5-0.2
		l12.4-7.1l1-2.1l2.4,1.6H72c0.6,0.1,1.3,0.2,2,0.2l21.8,0.2c6.9,0,12.5-5.7,12.6-12.5C108.4,43.8,102.8,38.1,95.9,38z M33.8,49.2
		l7.7-4.5l-0.2,0.7l1.4,0.2L42,47.1l1.8,0.2l-0.5,1.3l0.3,0.1l-7.5,4.4c-2.5,1.5-3.4,4.7-1.9,7.3c0.7,1,1.2,1.5,1.9,1.9
		c-0.2,0.3-0.5,0.5-0.8,0.7L32,64.9c-0.8-0.6-1.4-1-1.9-2c-1.3-2.3-1.7-5-1-7.6c0.4-1.6,1.2-3,2.3-4.2c0.1-0.1,0.2-0.2,0.3-0.3
		C32.3,50.2,33,49.6,33.8,49.2z M36.3,59.2c-0.1-0.1-0.1-0.2-0.1-0.3C36.2,59,36.3,59,36.3,59.2c0.1,0,0.1,0.2,0.2,0.3
		C36.4,59.4,36.4,59.3,36.3,59.2z M28.1,64.2c0.5,0.9,1,1.5,1.6,2l-12.3,7.1c-1.4,0.8-3.1,0.4-3.9-1c-0.7-1.4-0.3-3.1,1.1-3.9
		l12.2-7.2C27.1,62.2,27.5,63.2,28.1,64.2z M21.1,79.9c-4.8,2.8-11,1.2-13.7-3.6c-1.3-2.3-1.7-5-1-7.6s2.4-4.8,4.7-6.1l16.2-9.3
		c-0.2,0.4-0.3,0.9-0.5,1.4c-0.3,1.3-0.4,2.6-0.4,3.9l-13.1,7.7c-2.5,1.5-3.4,4.7-1.9,7.3c1,1.8,2.8,2.7,4.6,2.7
		c0.9,0,1.8-0.2,2.6-0.7l18-10.3c2.5-1.5,3.4-4.7,1.9-7.3c-0.4-0.6-0.8-1.1-1.4-1.5c-0.2-0.2-0.4-0.4-0.6-0.5
		c0.2-0.3,0.5-0.5,0.8-0.7l4.3-2.5c1,0.7,1.4,1.2,2.1,2.4c1.3,2.3,1.7,5,1,7.6s-2.4,4.8-4.7,6.1L21.1,79.9z M52.9,61.7l-6.5,3.7
		c0.3-0.6,0.5-1.2,0.7-1.9c0.4-1.5,0.5-3,0.3-4.5l1.7-1l1.7,0.2l-0.2,1.5l1.3,0.1l-0.3,1.1L52.9,61.7L52.9,61.7z M56.1,60.3
		l-1.4-0.8l0.4-1.7l1.5,1.6L56.1,60.3z M59.6,43.8l1.5-1.2l-1.4-0.9l1.1-0.9l-0.5-0.4h8.9c5.6,0,10.1,4.6,10.1,10.1
		c0,1-0.1,1.5-0.5,2.4h-3.7c-0.3,0-0.6-0.1-1-0.2c0.4-0.8,0.6-1.4,0.6-2.6c0-3-2.3-5.4-5.3-5.4h-8.6L59.6,43.8z M81.3,47.1l14.4,0.2
		c1.6,0,2.9,1.2,2.9,2.8S97.4,53,95.8,53l-14.3-0.1c0.2-0.6,0.3-1.3,0.3-2.3C81.8,49.4,81.6,48.2,81.3,47.1z M59.1,60.4l0.7-1.2
		l-0.7-0.8l1-0.7l-0.9-1.3l1.6-1h1.8c0.9,2,2.3,3.7,4,5H59.1z M95.9,60.6l-21.8-0.1c-5.6,0-10.1-4.6-10.1-10.1c0-1.4,0.1-2,0.9-3.3
		h4.5c0.4,0,0.8,0.1,1.1,0.3c-0.1,0.2-0.2,0.5-0.3,0.7c-0.3,0.6-0.4,1.3-0.4,2c0,2.9,2.3,5.3,5.3,5.3l20.7,0.1c3,0,5.4-2.4,5.2-5.4
		c0-2.9-2.4-5.3-5.3-5.3l-15.5-0.2c-0.9-1.7-2.2-3.1-3.7-4.2h19.4c5.6,0.1,10.1,4.6,10.1,10.1C106,56.1,101.4,60.6,95.9,60.6z"/>
</g>
</svg>
