<?xml version="1.0" encoding="utf-8"?>
<!-- Generator: Adobe Illustrator 27.3.1, SVG Export Plug-In . SVG Version: 6.00 Build 0)  -->
<svg version="1.1" id="Calque_2" xmlns="http://www.w3.org/2000/svg" xmlns:xlink="http://www.w3.org/1999/xlink" x="0px" y="0px"
	 viewBox="0 0 113.4 113.4" style="enable-background:new 0 0 113.4 113.4;" xml:space="preserve">
<style type="text/css">
	.st0{fill:#BA1A1D;}
</style>
<path class="st0" d="M24.6,39.2h12.6c0,0,3.2,1.4,0.1,5c-0.8,0.9-1.3,2.1-1.1,3.3c0.5,3.3,4.8,4.5,7,4.4c2.6-0.1,9.1-2.3,5.1-8.4
	c0,0-2.4-2.7,0-4.2H61v13.6c0,0,3,3.7,6.6,0c0,0,3.5-3.1,5.5,3.1c0,0,0.9,6.6-3.1,7.1c0,0-1.4,0.3-2.9-1.2s-4.6-2.3-6,0.4v13.4h-13
	c0,0-1.9-1.9-0.1-4c1.8-2.1,1.6-2.5,1.5-4.5c-0.1-1.9-2.7-4.1-6.6-4.1c-3.9,0-6.7,2.7-6.7,4.1s-0.5,2.2,1.3,4.5c0,0,2.1,2.7,0,4.2
	H24.6V63.3c0,0-0.4-1.6-2.4-1.6c0,0-1.2-0.2-2.1,0.9c-0.9,1.1-1.6,1.9-3.9,1.5C14,63.7,12,62.3,12,57.3s3.3-6.2,4.6-6.3
	s2.3,0,4.3,2.2c0,0,2,0.9,3-0.3s0.7-1.5,0.7-1.5S24.6,39.1,24.6,39.2z"/>
<path class="st0" d="M62.1,75.8V63.3c0,0,1.4-3.2,5-0.1c0.9,0.8,2.1,1.3,3.3,1.1c3.3-0.5,4.5-4.8,4.4-7c-0.1-2.6-2.3-9.1-8.4-5.1
	c0,0-2.7,2.4-4.2,0V39.3h13.6c0,0,3.7-2.9,0-6.4c0,0-3.1-3.5,3.1-5.5c0,0,6.6-0.9,7.1,3.1c0,0,0.3,1.4-1.2,2.9s-2.3,4.5,0.4,5.8
	h13.4v13.1c0,0-1.9,1.9-4,0.1c-2.1-1.8-2.5-1.6-4.5-1.5c-1.9,0.1-4.1,2.7-4.1,6.6s2.7,6.7,4.1,6.7s2.2,0.5,4.5-1.3
	c0,0,2.7-2.1,4.2,0v12.9H86.3c0,0-1.6,0.4-1.6,2.4c0,0-0.2,1.2,0.9,2.1s1.9,1.6,1.5,3.9c-0.4,2.2-1.7,4.2-6.8,4.2
	c-5.1,0-6.2-3.3-6.3-4.6s0-2.3,2.2-4.3c0,0,0.9-2-0.3-3c-1.2-1-1.5-0.7-1.5-0.7S62,75.8,62.1,75.8z"/>
</svg>
