<?xml version="1.0" encoding="utf-8"?>
<!-- Generator: Adobe Illustrator 26.5.0, SVG Export Plug-In . SVG Version: 6.00 Build 0)  -->
<svg version="1.1" id="Calque_1" xmlns="http://www.w3.org/2000/svg" xmlns:xlink="http://www.w3.org/1999/xlink" x="0px" y="0px"
	 viewBox="0 0 113.4 113.4" style="enable-background:new 0 0 113.4 113.4;" xml:space="preserve">
<style type="text/css">
	.st0{fill:#BA191B;}
</style>
<g>
	<path class="st0" d="M68.4,30.5h10.2c1.1,0,2-0.9,2-2s-0.9-2-2-2H68.4c-1.1,0-2,0.9-2,2S67.3,30.5,68.4,30.5z"/>
	<path class="st0" d="M62.8,31.5c1.7,0,3-1.3,3-3s-1.3-3-3-3s-3,1.3-3,3S61.1,31.5,62.8,31.5z M62.8,27.5c0.6,0,1,0.4,1,1
		s-0.4,1-1,1s-1-0.4-1-1S62.2,27.5,62.8,27.5z"/>
	<path class="st0" d="M78.6,43H68.4c-1.1,0-2,0.9-2,2s0.9,2,2,2h10.2c1.1,0,2-0.9,2-2S79.7,43,78.6,43z"/>
	<path class="st0" d="M62.8,42c-1.7,0-3,1.3-3,3s1.3,3,3,3s3-1.3,3-3S64.5,42,62.8,42z M62.8,46c-0.6,0-1-0.4-1-1s0.4-1,1-1
		s1,0.4,1,1S63.4,46,62.8,46z"/>
	<path class="st0" d="M68.4,62.9h10.2c1.1,0,2-0.9,2-2s-0.9-2-2-2H68.4c-1.1,0-2,0.9-2,2S67.3,62.9,68.4,62.9z"/>
	<path class="st0" d="M62.8,63.9c1.7,0,3-1.3,3-3s-1.3-3-3-3s-3,1.3-3,3S61.1,63.9,62.8,63.9z M62.8,59.9c0.6,0,1,0.4,1,1
		s-0.4,1-1,1s-1-0.4-1-1S62.2,59.9,62.8,59.9z"/>
	<path class="st0" d="M111,85.2H64.2c-0.7-2.3-2.5-4.1-4.8-4.8V70.2h23.5c2.6,0,4.7-2.1,4.7-4.6V55.2c0-1-0.3-1.9-0.9-2.7
		c0.5-0.8,0.8-1.8,0.8-2.8V39.6c0-1-0.3-1.9-0.8-2.6c0.6-0.8,0.9-1.7,0.9-2.7V23.8c0-2.5-2.1-4.6-4.6-4.6H31.9
		c-2.5,0-4.6,2.1-4.6,4.6v10.5c0,1,0.3,1.9,0.8,2.6c-0.5,0.8-0.8,1.7-0.8,2.7v10.3c0,1,0.3,2,0.9,2.7c-0.5,0.7-0.8,1.6-0.8,2.6v10.4
		c0,2.5,2.1,4.6,4.6,4.6h23.4v10.2c-2.3,0.7-4.1,2.5-4.8,4.8H2.7c-1.1,0-2,0.9-2,2s0.9,2,2,2h47.9c0.9,2.9,3.6,5.1,6.8,5.1
		s5.9-2.2,6.8-5.1H111c1.1,0,2-0.9,2-2S112.1,85.2,111,85.2z M31.3,49.9V39.6c0-0.4,0.3-0.7,0.7-0.7h50.8c0.4,0,0.7,0.3,0.7,0.7
		v10.2v0.1c0,0.2-0.1,0.4-0.2,0.5s-0.2,0.2-0.4,0.2H32C31.6,50.6,31.3,50.3,31.3,49.9z M31.3,23.8c0-0.3,0.2-0.6,0.6-0.6H83
		c0.3,0,0.6,0.2,0.6,0.6v10.5c0,0.4-0.3,0.6-0.6,0.6h-0.2H32h-0.1c-0.3,0-0.6-0.2-0.6-0.6V23.8z M31.4,65.6V55.2
		c0-0.4,0.3-0.6,0.6-0.6h50.9H83c0.4,0,0.6,0.3,0.6,0.6v10.4c0,0.3-0.3,0.6-0.7,0.6H32C31.6,66.2,31.4,65.9,31.4,65.6z M57.4,90.3
		c-1.6,0-2.8-1.2-3.1-2.7c0-0.1,0.1-0.3,0.1-0.4c0-0.2,0-0.3-0.1-0.4c0.2-1.5,1.5-2.7,3.1-2.7c1.7,0,3.1,1.4,3.1,3.1
		S59.1,90.3,57.4,90.3z"/>
</g>
</svg>
