<?xml version="1.0" encoding="utf-8"?>
<!-- Generator: Adobe Illustrator 27.3.1, SVG Export Plug-In . SVG Version: 6.00 Build 0)  -->
<svg version="1.1" id="Calque_1" xmlns="http://www.w3.org/2000/svg" xmlns:xlink="http://www.w3.org/1999/xlink" x="0px" y="0px"
	 viewBox="0 0 113.4 113.4" style="enable-background:new 0 0 113.4 113.4;" xml:space="preserve">
<style type="text/css">
	.st0{fill:#BA1A1D;}
</style>
<g>
	<polygon class="st0" points="31,71.4 53.1,85.2 53.1,57.5 31,43.8 	"/>
	<polygon class="st0" points="56.9,85.2 78.9,71.4 78.9,43.8 56.9,57.5 	"/>
	<polygon class="st0" points="55,29.6 32.3,41.5 55,54.7 76.9,42.1 	"/>
	<polygon class="st0" points="13.5,12.3 13.4,12.3 13.4,22.5 15.3,22.5 15.3,14.2 23.7,14.2 23.7,12.3 15.3,12.3 	"/>
	<polygon class="st0" points="101.9,100.7 93.4,100.7 93.4,102.5 101.9,102.5 103.7,102.5 103.7,102.5 103.7,92.3 101.9,92.3 	"/>
	<polygon class="st0" points="15.4,92.3 13.5,92.3 13.5,100.7 13.5,102.5 13.5,102.6 23.7,102.6 23.7,100.7 15.4,100.7 	"/>
	<polygon class="st0" points="101.8,22.6 103.7,22.6 103.7,14.2 103.7,12.4 103.7,12.3 93.5,12.3 93.5,14.2 101.8,14.2 	"/>
</g>
</svg>
