<?xml version="1.0" encoding="utf-8"?>
<!-- Generator: Adobe Illustrator 26.5.0, SVG Export Plug-In . SVG Version: 6.00 Build 0)  -->
<svg version="1.1" id="Calque_1" xmlns="http://www.w3.org/2000/svg" xmlns:xlink="http://www.w3.org/1999/xlink" x="0px" y="0px"
	 viewBox="0 0 113.4 113.4" style="enable-background:new 0 0 113.4 113.4;" xml:space="preserve">
<style type="text/css">
	.st0{fill:#BA191A;}
</style>
<g>
	<path class="st0" d="M37.9,67.2c-3.4,0-6.2,2.8-6.2,6.2c0,3.4,2.8,6.2,6.2,6.2s6.2-2.8,6.2-6.2C44.1,70,41.3,67.2,37.9,67.2z
		 M37.9,77.6c-2.3,0-4.2-1.9-4.2-4.2c0-2.3,1.9-4.2,4.2-4.2s4.2,1.9,4.2,4.2C42.1,75.7,40.2,77.6,37.9,77.6z"/>
	<path class="st0" d="M69.4,73.4c0-17.4-14.1-31.5-31.5-31.5S6.4,56,6.4,73.4s14.1,31.5,31.5,31.5S69.4,90.8,69.4,73.4z M37.9,101.9
		c-15.7,0-28.5-12.8-28.5-28.5s12.8-28.5,28.5-28.5s28.5,12.8,28.5,28.5S53.6,101.9,37.9,101.9z"/>
	<path class="st0" d="M37.9,63.3c-5.6,0-10.1,4.5-10.1,10.1s4.5,10.1,10.1,10.1S48,79,48,73.4S43.5,63.3,37.9,63.3z M37.9,80.5
		c-4,0-7.1-3.1-7.1-7.1s3.1-7.1,7.1-7.1s7.1,3.1,7.1,7.1S41.9,80.5,37.9,80.5z"/>
	<path class="st0" d="M101.7,24.6c-2.3-0.8-42.5-14.2-57.1-17.9c-5-1.3-9-0.7-12,1.6c-4.9,3.8-5,11-5,11.3v22.6l1.9-0.5
		c2.8-0.8,5.7-1.1,8.6-1.1c18.1,0,32.8,14.7,32.8,32.8c0,9.4-4,18.3-11.1,24.6l-2,1.7l2.5,0.8c9.4,3.1,24.9,8,26.8,8.5
		c0.4,0.1,0.8,0.1,1.2,0.1c1.1,0,2.1-0.4,2.7-1.2c0.9-1,1-2.2,1.1-2.4v-1.9l7.4-10.1c0.5,0.3,1.1,0.6,1.6,0.7c2.4,0.6,4-1.1,4.5-2.1
		l0.2-0.3V28.9C105.7,26.2,103.1,24.9,101.7,24.6z M87.1,35.7C84.7,35,52.2,25.5,43.2,22.4c-6-2.1-6.4-4.3-6.4-4.5
		c0.1-1.2,0.5-1.9,1.2-2.4c1.3-0.9,3.7-0.6,4.4-0.4l55.5,18v57.8l-5.7,7.8V40.8C92.1,37.2,88.9,35.9,87.1,35.7z M102.7,91
		c-0.2,0.2-0.5,0.4-0.9,0.3h-0.1c-0.1,0-0.4-0.1-0.8-0.5v-60L43.2,12.2c-0.4-0.2-4.2-1.1-7,0.8c-1,0.7-2.2,2.1-2.4,4.6
		c-0.1,0.7-0.1,4.5,8.4,7.6c9.4,3.3,43.8,13.3,44.2,13.4l0.3,0.1c0.2,0,2.4,0.3,2.4,2v64.6c0,0.2-0.1,0.5-0.4,0.8
		c-0.1,0.1-0.4,0.2-0.8,0.1c-1.6-0.4-14.4-4.5-24.2-7.7c6.5-6.7,10.2-15.7,10.2-25.1c0-19.7-16.1-35.8-35.8-35.8
		c-2.6,0-5.1,0.3-7.5,0.8V19.7c0-0.1,0.1-6.1,3.8-9c2.2-1.7,5.4-2.1,9.4-1.1c14.9,3.7,56.6,17.7,57,17.9l0.2,0.1
		c0,0,1.7,0.3,1.7,1.3C102.7,28.9,102.7,91,102.7,91z M36.8,17.9C36.8,17.9,36.8,18,36.8,17.9L36.8,17.9z"/>
</g>
</svg>
