<?xml version="1.0" encoding="utf-8"?>
<!-- Generator: Adobe Illustrator 26.5.0, SVG Export Plug-In . SVG Version: 6.00 Build 0)  -->
<svg version="1.1" id="Calque_1" xmlns="http://www.w3.org/2000/svg" xmlns:xlink="http://www.w3.org/1999/xlink" x="0px" y="0px"
	 viewBox="0 0 113.4 113.4" style="enable-background:new 0 0 113.4 113.4;" xml:space="preserve">
<style type="text/css">
	.st0{fill:#BA1A1D;}
</style>
<g>
	<path class="st0" d="M42.5,39.6L42.5,39.6c-2.6,0-3.2-3-3.2-3.1l-0.1-0.4h-0.4c-1.6,0.1-4.7,1.1-4.8,4.6v3.1c-0.1,0.4,0,1.1,1,1.5
		h0.2l14.3,0.1c0.6-0.1,1.5-0.5,1.5-1.8v-3.2c0,0,0-3.5-4.3-4.3c-0.4-0.8-1.3-1.2-1.9-1.3v-0.3c1.9-1,2.6-2.9,2.9-4v0.1
		c1.6-0.7,2-1.7,2.2-3.1c0.1-0.6-0.1-1-0.5-1.4c0.7-2.4-0.3-4.7-0.4-4.9c-2.2-3.8-7.2-3.5-11.2-1.9c-2.8,1.2-2.3,5.9-2.1,7
		c-0.2,0.3-0.4,0.7-0.5,1.2c-0.3,1.4,1.2,2.6,1.8,3c0.2,1.1,0.9,3.5,3.3,4.3v1.6c0,0.7,0.5,1.9,2.1,1.9c1.8,0,2.4-1.3,2.4-1.9v-0.5
		c0.4,0.1,0.9,0.4,1.1,0.8C45.7,37.2,45,39.5,42.5,39.6z M47.8,29.4v-3.2c0.5,0.2,1.1,0.6,1,1.2C48.7,28.4,48.6,29,47.8,29.4z
		 M38.1,20.3c1.3-0.5,7.6-2.7,10,1.4c0,0,0.8,1.8,0.5,3.7c-0.3-0.2-0.5-0.3-0.8-0.4l0,0c0-1.4-0.5-3.8-2.5-3.8
		c-0.6,0-1.1,0.1-1.5,0.4c-0.3,0.2-0.4,0.4-0.5,0.5s-0.1,0.2-0.3,0.3c0,0-0.2,0.1-0.7,0.2c-0.4,0-0.7-0.2-1-0.5
		c-0.7-0.6-1.4-1.1-3-0.3c-1,0.5-1.1,1.5-1.3,2.8l-0.1,0.6c-0.1,0.1-0.3,0.2-0.4,0.3C36.4,23.7,36.4,21,38.1,20.3z M36.8,26.5
		c0,0.7,0,1.6,0,2.5c-0.4-0.4-0.7-0.9-0.6-1.4C36.2,27.1,36.5,26.7,36.8,26.5z M37.9,30c-0.2-2.1-0.1-3.3,0-4.6l0.1-0.5
		c0.2-1.3,0.3-1.8,0.8-2.1c1.1-0.6,1.3-0.3,1.8,0.1c0.3,0.3,0.8,0.8,1.8,0.8c0.8-0.1,1.1-0.3,1.2-0.4c0.3-0.2,0.4-0.4,0.5-0.5
		s0.2-0.2,0.3-0.3c0.2-0.1,0.4-0.2,0.9-0.2c1.5,0,1.5,2.8,1.5,2.8v4.7c0,0.2-0.5,4.3-4.6,4.3S37.9,30.2,37.9,30z M42.4,37.3
		c-1,0-1.1-0.8-1.1-0.9V35c0.3,0,0.6,0.1,0.9,0.1c0.6,0,1.1-0.1,1.6-0.2v1.5C43.8,36.6,43.6,37.3,42.4,37.3z M42.6,40.5L42.6,40.5
		l1.1,3.8h-2.2l0.9-3.8C42.4,40.5,42.5,40.5,42.6,40.5z M35.1,43.9v-3.3c0.1-2.8,2.4-3.4,3.4-3.6c0.3,1.2,1.2,2.8,2.8,3.3l-0.9,4
		h-5.1C35,44.2,35,44,35.1,43.9z M46.8,37.1c3.1,0.6,3.2,3.1,3.2,3.2v3.2c0,0.7-0.4,0.8-0.5,0.8h-4.8l-1-4
		C45.5,39.8,46.5,38.3,46.8,37.1z"/>
	<path class="st0" d="M45.5,27.7l0.5-1c-0.1,0-1.7-0.8-2.7,0.1l0.7,0.8C44.5,27.2,45.5,27.7,45.5,27.7z"/>
	<path class="st0" d="M41.5,30.1c0.1,0.3,0.3,0.5,0.9,0.5v-0.8c0,0,0.1-0.1,0.1-0.2l-0.3-0.2l0.4,0.2l0.3-0.6L42,28.5L41.7,29
		C41.5,29.2,41.3,29.6,41.5,30.1z"/>
	<path class="st0" d="M44.3,32l-0.6-0.8c-1.2,0.8-2.5,0.2-2.5,0.2l-0.5,0.9c0.1,0.1,0.7,0.4,1.6,0.4C42.8,32.7,43.5,32.6,44.3,32z"
		/>
	<path class="st0" d="M41.4,26.9c-0.1,0-1.7-0.8-2.7,0.1l0.7,0.8c0.5-0.4,1.5,0.1,1.5,0.1L41.4,26.9z"/>
	<rect x="53.6" y="21.4" class="st0" width="18.6" height="1"/>
	<rect x="53.6" y="35" class="st0" width="11.8" height="1"/>
	<rect x="65.4" y="25.5" class="st0" width="6.8" height="1"/>
	<rect x="53.6" y="25.5" class="st0" width="3.4" height="1"/>
	<rect x="53.6" y="28.8" class="st0" width="14.3" height="1"/>
	<rect x="53.6" y="32.3" class="st0" width="18.6" height="1"/>
	<rect x="57" y="39.1" class="st0" width="15.2" height="1"/>
	<rect x="67.9" y="43.2" class="st0" width="4.3" height="1"/>
	<rect x="53.6" y="43.2" class="st0" width="7.6" height="1"/>
	<path class="st0" d="M64.3,58.1c-7.8,0-14.1,6.3-14.1,14.1s6.3,14.1,14.1,14.1S78.4,80,78.4,72.2S72.1,58.1,64.3,58.1z M64.3,83.3
		c-6.1,0-11.1-5-11.1-11.1s5-11.1,11.1-11.1s11.1,5,11.1,11.1S70.4,83.3,64.3,83.3z"/>
	<path class="st0" d="M58.4,74.8l-2.8,0.9c0.4,1.1,1.1,2.2,2.1,3.2c1.2,1.3,2.8,2.1,4.5,2.5l0.6-2.9c-1.2-0.3-2.2-0.8-3.1-1.7
		C59.1,76.2,58.6,75.5,58.4,74.8z"/>
	<path class="st0" d="M68.1,68.3c0.7,0.7,1.2,1.7,1.4,2.7c0.5,1.9-0.1,3.7-1.4,5l3.6,3.6c2.5-2.6,3.5-6.2,2.7-9.6
		c-0.4-2-1.4-3.8-2.8-5.2L68.1,68.3z"/>
	<path class="st0" d="M111.1,36.6L76.4,17.5L76,18.3L109.7,37L88.2,75.9c0.2-1.2,0.3-2.5,0.3-3.7c0-0.8,0-1.7-0.1-2.5l0.5,0.3
		l5.2-9.4L76.6,50.2L76,51l16.7,10l-4.4,8.2C86.8,57.3,76.6,48,64.3,48c-3.8,0-7.4,0.9-10.6,2.5v-0.7H34.6v17.6h-0.8v-3.5h-3.2V15.2
		h43.9v34.3h1v-6.9l0.7,0.6l0.6-0.8c0,0,0.1,0,0.1,0.1l-1,3.7H76l-0.3,0.9l4.7,1.7c0.1,0.1,0.3,0.1,0.5,0.1c0.4,0,0.9-0.2,1.2-0.8
		c0.5-0.8,1.3-2.2,1.3-2.3c0.1,0,1.4-2.7-1.6-4.9l-0.1-0.1c-0.1-0.6-0.5-1.1-0.8-1.5v-0.1H81c1.6,0,2.8-0.9,3.5-1.8
		c0.2,0,0.3,0,0.5,0c1.2,0,1.8-0.7,2.4-1.5c0.2-0.3,0.3-0.7,0.2-1.1c1.4-1.4,1.6-3.6,1.4-3.7c0-3.7-3.8-5.5-7.3-5.9
		c-2.7-0.4-4.3,4.2-4.4,4.4h0.1c-0.2,0.1-0.5,0.3-0.7,0.6c-0.6,0.9-0.2,2.1,0,2.8c-0.5,1.2-0.6,3.1,0.7,4.6l-0.6,1.1
		c-0.3,0.6-0.3,1.7,0.8,2.3c0.4,0.2,0.8,0.3,1.2,0.3c0.6,0,1.1-0.4,1.4-0.7l0.2-0.4c0.2,0.2,0.4,0.6,0.3,0.9h0.2
		c-0.5,0.5-1.8,1.4-3.4,0.6c-1.8-0.9-1-3.2-1-3.3l-0.9-0.3c0,0.1-0.1,0.2-0.1,0.3V14.2H29.6v49.7L11,63.7c-2.2,0-4.4,0.8-6,2.4
		S2.5,69.8,2.5,72c0,4.6,3.6,8.4,8.3,8.5l22.9,0.2v-4.4l6.7-0.1c1.9,11.4,11.9,20.2,23.9,20.2c11.9,0,21.8-8.7,23.8-20l0.7,0.3
		L111.1,36.6z M86.5,35.5c-0.4,0.6-0.8,1-1.4,1l1.2-2.1C86.5,34.8,86.7,35.2,86.5,35.5z M81.6,26.2c1.1,0.2,6.5,1,6.5,4.9
		c0,0.1-0.2,1.5-1,2.7c-0.1-0.1-0.2-0.2-0.3-0.4c0.5-1.1,1-2.8-0.4-3.5c-1.1-0.6-1.6-0.4-1.9-0.2c-0.1,0-0.1,0.1-0.2,0.1
		s-0.3,0-0.5-0.1c-0.3-0.2-0.4-0.5-0.5-0.8c-0.2-0.7-0.5-1.4-2-1.5c-1.1-0.2-1.6,0.5-2.1,1.2c-0.1,0.2-0.2,0.4-0.4,0.6l-0.1,0.1
		c-0.1,0-0.2,0-0.3,0C79,28,80.2,26,81.6,26.2z M77.4,30.9c0.2-0.2,0.4-0.3,0.6-0.4c-0.2,0.4-0.5,0.9-0.7,1.4
		C77.2,31.5,77.2,31.1,77.4,30.9z M77.8,33.2c0.6-1.5,1.2-2.4,1.8-3.3c0.2-0.2,0.3-0.4,0.5-0.5c0.5-0.7,0.7-0.9,1.1-0.8
		c1,0.1,1,0.3,1.2,0.8c0.1,0.4,0.3,0.9,1,1.3c0.5,0.3,0.9,0.3,1,0.3h0.1c0.2-0.1,0.4-0.1,0.5-0.2s0.2-0.1,0.3-0.1
		c0.1,0,0.3,0,0.7,0.2c0.9,0.5-0.1,2.4-0.1,2.4L84,36.7c0,0.1-1.9,2.7-4.8,1.1C76.4,36.2,77.7,33.3,77.8,33.2z M78.1,40.1
		c-0.6-0.3-0.5-0.8-0.4-0.9l0.5-0.9c0.2,0.1,0.3,0.2,0.5,0.3c0.4,0.2,0.8,0.4,1.1,0.5l-0.5,1C79.3,40.2,78.9,40.6,78.1,40.1z
		 M81.6,41.9c1.9,1.6,1,3.3,1,3.4c0,0-0.8,1.5-1.3,2.3c-0.2,0.4-0.5,0.3-0.6,0.3l-4.6-1.7l0.7,0.2l1-3.6
		C79.4,43.3,80.8,42.6,81.6,41.9z M76.1,41.8l-0.6,0.7v-1.8C75.6,41.1,75.8,41.4,76.1,41.8z M35.6,50.8h17.5
		c-6.3,3.3-11,9.4-12.5,16.6h-5V50.8z M30.7,77.7l-19.9-0.2c-3-0.1-5.3-2.5-5.3-5.5c0-1.4,0.6-2.8,1.6-3.8s2.3-1.5,3.7-1.5
		c0.1,0,0.1,0,0.2,0l19.8,0.2v2.8l-0.1,6.6l0,0L30.7,77.7z M33.7,73.3v-1.5v-1.4h6.4c0,0.6-0.1,1.2-0.1,1.8c0,0.3,0,0.7,0,1
		L33.7,73.3z M64.3,93.4c-11.7,0-21.2-9.5-21.2-21.2S52.6,51,64.3,51s21.2,9.5,21.2,21.2S76,93.4,64.3,93.4z"/>
	<path class="st0" d="M84,34.6l0.8-0.6c-0.3-0.5-1-1.2-2-1l0.2,1C83.6,33.9,84,34.6,84,34.6z"/>
	<path class="st0" d="M80.7,33.8L80.7,33.8c-0.1,0.1-0.5,0.3-0.6,0.8c0,0.2,0,0.5,0.4,0.8l0.6-0.7c0,0,0,0.1,0,0.2l0.1-0.1L81,34.3
		l0.2,0.4L81,34.2l0.4,0.5l0.4-0.3l-0.6-0.8L80.7,33.8z"/>
	<path class="st0" d="M81.1,37.2c0.1,0,0.2,0,0.2,0l-0.1-1c-1.1,0-1.7-0.9-1.7-0.9l-0.9,0.5C78.7,35.9,79.5,37.2,81.1,37.2z"/>
	<path class="st0" d="M80.6,32.9l0.8-0.6c-0.3-0.5-1-1.2-2-1l0.2,1C80.2,32.2,80.6,32.9,80.6,32.9z"/>
	<polygon class="st0" points="105.7,40.5 97.8,36.2 92.3,33.1 91.9,33.9 105.3,41.3 	"/>
	<polygon class="st0" points="92,46.7 95,48.4 95.4,47.6 92.4,45.9 89.5,44.3 87.1,42.9 86.5,43.7 89,45.1 	"/>
	<polygon class="st0" points="104.1,43.4 101,41.7 99.2,40.8 98.8,41.6 100.6,42.5 103.7,44.2 	"/>
	<rect x="91.2" y="35.8" transform="matrix(0.4613 -0.8872 0.8872 0.4613 16.421 101.3912)" class="st0" width="1" height="2.8"/>
	<polygon class="st0" points="89,39.2 94.5,42.3 97.5,43.9 99.3,44.9 99.7,44.1 94.9,41.5 89.4,38.4 	"/>
	<polygon class="st0" points="101.4,48.3 93.5,44 90.5,42.3 88,41 87.6,41.8 90.1,43.1 101,49.1 	"/>
	<polygon class="st0" points="98.7,53.2 90.8,48.8 87.8,47.2 87.4,48 98.3,54 	"/>
	<rect x="94.9" y="53.9" transform="matrix(0.4808 -0.8768 0.8768 0.4808 0.7851 112.5339)" class="st0" width="1" height="3.5"/>
	<polygon class="st0" points="83.7,48.8 83.3,49.6 85.8,50.9 88.8,52.6 89.2,51.8 86.2,50.1 	"/>
</g>
</svg>
