<?xml version="1.0" encoding="utf-8"?>
<!-- Generator: Adobe Illustrator 26.5.0, SVG Export Plug-In . SVG Version: 6.00 Build 0)  -->
<svg version="1.1" id="Calque_1" xmlns="http://www.w3.org/2000/svg" xmlns:xlink="http://www.w3.org/1999/xlink" x="0px" y="0px"
	 viewBox="0 0 113.4 113.4" style="enable-background:new 0 0 113.4 113.4;" xml:space="preserve">
<style type="text/css">
	.st0{fill:#BA191B;}
</style>
<g>
	<path class="st0" d="M81.4,72.8c9.9,0.4,17-1.7,21.8-6.4c4.4-4.4,6.6-10.9,6.5-19.8c0-11.5-12.5-18.3-16.3-20.1
		c-0.7-4.7-2.7-8.2-5.8-10.4c-4.3-3-9.5-2.8-11.8-2.5c-5.6-6.3-11.7-9.5-18.2-9.5c-0.1,0-0.1,0-0.1,0c-9.4,0.1-16.7,6.8-19.2,9.4
		c-3.8-1-7.2-0.6-10.2,1.1c-5.4,3.1-7.6,9.6-8.3,12.1C15.7,28.9-0.4,38.8,5,55.6c5.2,15.9,22.1,17.2,27.4,17.2c0.3,0,0.5,0,0.7,0v1
		c0,1,0.3,2,0.9,2.7c-0.6,0.8-0.9,1.7-0.9,2.7v7.1c0,2.5,2.1,4.6,4.6,4.6h17.5v7.3c-1.7,0.6-3,2-3.6,3.6H14.1v4h37.5
		c0.8,2.3,3,4,5.6,4s4.8-1.7,5.6-4h36.7v-4H62.8c-0.6-1.7-2-3-3.6-3.6v-7.3h17.6c2.5,0,4.6-2.1,4.6-4.6v-7.1c0-1-0.3-1.9-0.9-2.7
		c0.6-0.8,0.9-1.7,0.9-2.7V72.8z M57.2,105.8c-1.1,0-2-0.9-2-2s0.9-2,2-2s2,0.9,2,2S58.3,105.8,57.2,105.8z M8.9,54.5
		C3.8,38.8,21.6,30.4,22.4,30l0.9-0.4l0.2-1c0-0.1,1.6-7.5,6.6-10.4c2.3-1.3,5-1.5,8.2-0.4l1.3,0.4l0.9-1.1C40.6,17,48,8.2,57.6,8.2
		c5.5,0,10.9,3,15.8,8.9l0.8,0.9l1.2-0.4c0.1,0,5.8-1.2,9.9,1.7c2.4,1.8,3.9,4.7,4.3,8.7l0.1,1.2l1.1,0.5
		c0.2,0.1,14.9,6.3,14.9,16.9c0.1,7.8-1.7,13.3-5.3,16.9c-3.9,3.8-10.3,5.6-19,5.3v-1.9c0-1-0.3-1.9-0.8-2.7
		c0.5-0.8,0.8-1.7,0.8-2.6v-7.2c0-2.5-2.1-4.6-4.6-4.6H37.6c-2.5,0-4.6,2.1-4.6,4.6v7.2c0,1,0.3,1.9,0.9,2.7
		c-0.5,0.7-0.8,1.7-0.8,2.6v2C29.7,69.1,13.6,69,8.9,54.5z M77.4,73.8c0,0.4-0.3,0.7-0.7,0.7H37.8c-0.4,0-0.7-0.3-0.7-0.7v-6.9
		c0-0.4,0.3-0.7,0.7-0.7h38.9c0.4,0,0.7,0.3,0.7,0.7C77.4,66.9,77.4,73.8,77.4,73.8z M37.6,62.2c-0.3,0-0.6-0.2-0.6-0.6v-7.2
		c0-0.3,0.2-0.6,0.6-0.6h39.2c0.3,0,0.6,0.2,0.6,0.6v7.2c0,0.3-0.2,0.6-0.5,0.6h-0.2H37.8H37.6z M77.4,86.3c0,0.3-0.3,0.6-0.6,0.6
		H37.7c-0.4,0-0.6-0.3-0.6-0.6v-7.1c0-0.4,0.3-0.6,0.6-0.6h39.1c0.4,0,0.6,0.3,0.6,0.6V86.3z"/>
	<rect x="65.9" y="56.6" class="st0" width="8" height="2"/>
	<path class="st0" d="M61.5,54.8c-1.5,0-2.8,1.3-2.8,2.8s1.3,2.8,2.8,2.8s2.8-1.3,2.8-2.8S63,54.8,61.5,54.8z M61.5,58.8
		c-0.7,0-1.2-0.5-1.2-1.2s0.5-1.2,1.2-1.2s1.2,0.5,1.2,1.2S62.2,58.8,61.5,58.8z"/>
	<rect x="65.9" y="69.5" class="st0" width="8" height="2"/>
	<path class="st0" d="M61.5,67.7c-1.5,0-2.8,1.3-2.8,2.8s1.3,2.8,2.8,2.8s2.8-1.3,2.8-2.8S63,67.7,61.5,67.7z M61.5,71.7
		c-0.7,0-1.2-0.5-1.2-1.2s0.5-1.2,1.2-1.2s1.2,0.5,1.2,1.2S62.2,71.7,61.5,71.7z"/>
	<rect x="65.9" y="82.1" class="st0" width="8" height="2"/>
	<path class="st0" d="M61.5,80.3c-1.5,0-2.8,1.3-2.8,2.8s1.3,2.8,2.8,2.8s2.8-1.3,2.8-2.8S63,80.3,61.5,80.3z M61.5,84.3
		c-0.7,0-1.2-0.5-1.2-1.2s0.5-1.2,1.2-1.2s1.2,0.5,1.2,1.2S62.2,84.3,61.5,84.3z"/>
</g>
</svg>
