<?xml version="1.0" encoding="utf-8"?>
<!-- Generator: Adobe Illustrator 26.5.0, SVG Export Plug-In . SVG Version: 6.00 Build 0)  -->
<svg version="1.1" id="Calque_1" xmlns="http://www.w3.org/2000/svg" xmlns:xlink="http://www.w3.org/1999/xlink" x="0px" y="0px"
	 viewBox="0 0 113.4 113.4" style="enable-background:new 0 0 113.4 113.4;" xml:space="preserve">
<style type="text/css">
	.st0{fill:#BA1A1D;}
</style>
<g>
	<path class="st0" d="M110.5,49.2c-0.6-0.4-1.3-0.4-1.9-0.1l-6.6,3.1c-2.5-2.1-7.2-3-9.9-3.3v-0.2c6.4-2.8,5.6-12,5.4-13.5
		c0-1-0.2-5.6-3.4-8.9c-2.2-2.2-5.3-3.3-9.2-3.3l1.1-3c0.3-0.7,0.1-1.6-0.4-2.1l-7.3-7.4c-0.7-0.7-1.8-0.8-2.6-0.2L72,12.9
		c-2.4-1.5-5-2.4-6.5-2.8l-1.2-4.2c-0.2-0.9-1-1.5-1.9-1.5H52.1c-1,0-1.8,0.7-2,1.6l-0.7,3.8c-2.8,0.6-5.2,1.9-6.5,2.7l-3.4-2.2
		c-0.8-0.5-1.8-0.4-2.5,0.2l-7.7,7.3c-0.6,0.6-0.8,1.5-0.4,2.3l1.3,2.9c-0.1,0-0.3,0-0.4,0c-3.4-0.1-6.2,0.9-8.4,3
		c-3.6,3.4-4.2,8.6-4.2,11.5c-0.1,5.4,3.8,9.4,5.5,10.9v0.8c-1.6,0.4-3.2,1-4.2,1.4L11,46.4c-0.3-0.2-0.6-0.3-1-0.3H5.9
		c-1.1,0-2,0.9-2,2v32.3c0,0.9,0.6,1.6,1.4,1.9l16.5,5.3c0.2,0.1,0.4,0.1,0.6,0.1c0.3,0,0.7-0.1,1-0.2c0.5-0.3,0.8-0.7,1-1.3
		l0.2-0.9l4.2,2.3c-0.6,1.4-0.3,3,0.7,4l2.9,2.8l0.1,0.1c0.5,0.4,1,0.7,1.6,0.8c0.2,0.6,0.5,1.2,0.9,1.6l2.9,2.8l0.1,0.1
		c0.4,0.3,0.9,0.6,1.3,0.7c0.2,0.5,0.4,1.1,0.9,1.5l2.9,2.8l0.1,0.1c0.4,0.4,0.9,0.6,1.4,0.7c0.2,0.5,0.4,1,0.8,1.4l2.9,2.8l0.1,0.1
		c0.7,0.6,1.6,0.9,2.5,0.9s1.9-0.3,2.6-1l0.4-0.4c1.2,1.2,3,2.3,5.2,2.3c0.3,0,0.5,0,0.8,0c3-0.5,5-2.3,5.8-5.3
		c1.7-0.1,2.7-0.8,3.4-1.5c1-1.1,1.3-2.4,1.4-3.6c1-0.1,2.1-0.5,3.2-1.4c1.2-1,1.6-2.3,1.6-3.7c0.9-0.1,1.9-0.6,3.1-1.6
		c1.7-1.3,2.1-2.7,2.1-3.7c0-0.2,0-0.4,0-0.6L110.3,75c0.7-0.3,1.1-1,1.1-1.8V50.9C111.4,50.2,111,49.6,110.5,49.2z M91.1,29.2
		c2.4,2.4,2.3,6.1,2.3,6.1c0,0.1,0,0.3,0,0.4c0,0.1,1.1,8.5-3.9,9.7c-0.9,0.2-1.5,1-1.5,1.9v3.5c0,1.1,0.8,1.9,1.9,2
		c2.7,0.1,5.7,0.7,7.7,1.5l-19.2,9.1c0-1,0-2.3,0-3.9c-0.1-2.4-1.3-4.3-2.6-5.6c1.4-0.5,3-0.9,4.2-0.9c1.1-0.1,1.9-0.9,1.9-2v-2.8
		c0-0.5-0.2-1.1-0.6-1.5c-1.4-1.3-5-5.5-5-8.6c0-0.1,0-0.2,0-0.3c0,0-0.5-4.2,1.3-7.2c0.1-0.1,0.2-0.3,0.3-0.4
		c0.1-0.1,0.2-0.3,0.3-0.4c1.3-1.6,3.4-2.5,6.1-2.6C87.3,27,89.6,27.7,91.1,29.2z M62.1,63.8c-1.4-0.9-6.5-3.9-15.5-4.6
		c-2.1-0.2-4.2-0.2-6.1-0.1c0.2-1.6,1-3.8,3.4-4.4c5.4-1.4,9-1.9,9.1-2c1-0.1,1.7-1,1.7-2V48c0-0.7-0.3-1.3-0.9-1.7
		c-0.1,0-5-3.5-4.9-8.4C49,33,50.4,27.1,56.7,27c0.1,0,0.1,0,0.2,0c7.6,0,8.5,6.3,8.6,9c0.1,5.4-0.6,6.7-4.1,10
		c-0.4,0.4-0.6,0.9-0.6,1.4v3.3c0,0.9,0.6,1.7,1.5,1.9l8.3,2.3c0.1,0.1,0.3,0.1,0.5,0.2c0.9,0.5,3.2,2,3.3,4.3c0.1,2.7,0,4.5,0,5.5
		c-2.2,0.4-6.5,0.8-8.8,0L65.4,65C64.4,64.6,63.3,64.1,62.1,63.8z M42.2,37.8c0.1-3-0.4-5.7-1.4-7.9c1.5-2.5,6.8-9.5,16.7-9.5
		c10.4,0,15,6.4,16.3,8.8c-2,3.8-1.6,8.1-1.5,9c0,4.5,4,9.1,5.6,10.8v0.2c-2.4,0.5-5.1,1.5-6.3,2l-6.8-1.9v-0.9
		c3.7-3.7,4.8-6.1,4.7-12.4c-0.1-8-5.2-13.1-12.8-13c-7.2,0.1-11.6,5.7-11.8,14.9c-0.1,5.6,4,9.6,5.8,11.1v0.1
		c-1.6,0.3-4.3,0.8-7.8,1.8c-1.6-0.9-4.2-1.3-6-1.5v-1C38.6,47,42,43.4,42.2,37.8z M33.1,19.9l5.5-5.2l3.2,2
		c0.7,0.5,1.7,0.4,2.3-0.1c0,0,3.2-2.5,7.2-3c0.9-0.1,1.6-0.7,1.7-1.6l0.7-3.6h7.1l1.1,3.8c0.2,0.7,0.8,1.3,1.5,1.4
		c1.2,0.3,4.9,1.3,7.3,3.2c0.7,0.5,1.7,0.6,2.4,0.1l3.4-2.4l5.2,5.3l-1.6,4c-1.4,0.4-2.7,1.1-3.7,2c-2.4-3.6-8.1-9.5-19-9.5
		c-10.4,0-16.5,6.3-19.2,10c-0.9-0.9-2-1.6-3.2-2.1L33.1,19.9z M25.9,45.9c0,0-4.8-3.6-4.7-8.3c0.1-3.7,1.2-6.9,3-8.6
		c1.4-1.3,3.2-2,5.5-1.9c1.2,0,2.3,0.2,3.3,0.6c0.1,0,0.1,0.1,0.2,0.1c1,0.4,1.9,0.9,2.6,1.7c0.4,0.4,0.7,0.8,0.9,1.3
		c0,0.1,0.1,0.1,0.1,0.2c1.2,2.1,1.4,4.7,1.4,6.8c-0.2,5.2-4.2,8-4.4,8.1c-0.6,0.4-0.9,1-0.9,1.7v3.8c0,1.1,0.8,1.9,1.9,2
		c1.2,0.1,2.6,0.2,3.8,0.4c-1.4,1.8-2,4-2.1,5.8c-2.1,0.3-4,0.6-5.5,1l0.2-0.8c0.2-0.9-0.2-1.8-0.9-2.2l-7.2-4.1
		c0.6-0.2,1.2-0.3,1.8-0.3c1-0.1,1.9-0.9,1.9-2v-3.4C26.7,46.9,26.4,46.3,25.9,45.9z M7.9,50.1h1.6l7.8,4.4c0.1,0.1,0.2,0.1,0.3,0.2
		l3.5,2c-0.1,0.2-0.2,0.4-0.3,0.7L15.1,81c0,0.1,0,0.2,0,0.3L8,79L7.9,50.1L7.9,50.1z M18.7,82.4c0.1-0.2,0.2-0.3,0.2-0.5l5.6-23.2
		l2.4,1.4l-0.7,2.6c0,0.1,0,0.1-0.1,0.2L21,83.1L18.7,82.4z M33.1,88.5c0.1-0.1,0.1-0.1,0.2-0.2l5.5-5.6l2.4,2.3L35,91.4L32.6,89
		L33.1,88.5z M44.3,88l2.4,2.3l-6.2,6.4l-2.4-2.3L44.3,88z M45.6,101.7l-2.3-2.2l6.2-6.4l2.3,2.2L45.6,101.7z M50.8,106.7l-2.3-2.2
		l6.2-6.4l1.9,1.8c0,0.2,0,0.5,0.1,0.7l-3.9,4c-0.2,0.1-0.3,0.3-0.4,0.4L50.8,106.7z M59.3,107.6c-1.1,0.1-2-0.5-2.6-1.1l3-3.1
		l2.2,1.7C61.4,107,60.3,107.5,59.3,107.6z M75.9,91.4c-0.8,0.6-1.1,0.8-1.2,0.8s-0.3-0.1-0.7-0.4c-0.3-0.4-0.6-0.6-1-0.7
		c-0.2-0.1-0.3-0.3-0.5-0.4c-3.1-2.6-7.4-6.3-7.5-6.4c-0.8-0.7-2.1-0.6-2.8,0.2c-0.7,0.8-0.6,2.1,0.2,2.8c0,0,4.4,3.8,7.5,6.4
		c0.3,0.3,0.7,0.5,1,0.8c0.3,0.9,0.6,1.9,0.2,2.3c-0.5,0.4-1.3,1.1-4.5-1.6c-2.9-2.4-7.2-5.8-7.2-5.8c-0.9-0.7-2.1-0.5-2.8,0.3
		c-0.7,0.9-0.5,2.1,0.3,2.8c0,0,4.3,3.4,7.2,5.8c0.6,0.5,1.4,1.2,2.5,1.8c0.1,0.8,0,1.7-0.3,2.1c-0.2,0.2-0.7,0.3-1.3,0.2l-3.8-3
		c-0.1-0.5-0.4-1-0.8-1.4l-0.1-0.1L57.2,95l-0.1-0.1c-0.4-0.4-0.9-0.6-1.4-0.7c-0.2-0.5-0.4-1-0.8-1.4L52,90l-0.1-0.1
		c-0.4-0.4-0.9-0.6-1.4-0.7c-0.1-0.4-0.3-0.8-0.6-1.2c-0.1-0.1-0.2-0.2-0.2-0.3l-2.9-2.8l-0.1-0.1c-0.5-0.4-1-0.7-1.6-0.8
		c-0.1-0.5-0.4-1-0.8-1.5l-0.1-0.1l-2.9-2.8l-0.1-0.1c-1.5-1.3-3.7-1.2-5,0.1l-4.8,4.9l-5.8-3.2l4.3-16.4c2.4-0.7,9-2.3,16.5-1.7
		c3,0.2,5.5,0.8,7.5,1.4c-0.4,0.2-0.8,0.4-1.2,0.6c-4.4,2.5-8.5,3.8-8.5,3.8c-0.4,0.1-0.7,0.4-1,0.7c-1.2,1.6-2.8,5.1-0.6,7.9
		s5.6,3.5,9,2c2.2-1,6-3.1,6.2-3.2c0,0,2.3-1.3,3.4,0C63.5,78.8,75.5,89.6,76,90c0.2,0.2,0.5,0.6,0.5,0.9
		C76.4,90.9,76.3,91.1,75.9,91.4z M107.4,72L78.5,86.8C77,85.5,66.1,75.7,64,73.5c-1.3-1.3-2.8-1.8-4.2-1.8c-1.6,0-3.1,0.6-4.1,1.1
		c0,0-3.8,2.1-5.9,3c-1.2,0.5-2.9,0.8-4.2-0.8c-0.6-0.7,0-1.9,0.3-2.5c1.4-0.5,4.9-1.8,8.6-3.9c2.4-1.4,4.2-1.5,6.1-1l0,0
		c1,0.2,2.1,0.6,3.4,1.1l0.2,0.1c4.1,1.6,11,0.2,11.8,0.1c0.2,0,0.3-0.1,0.5-0.2l30.9-14.6V72z"/>
</g>
</svg>
