<?xml version="1.0" encoding="utf-8"?>
<!-- Generator: Adobe Illustrator 26.5.0, SVG Export Plug-In . SVG Version: 6.00 Build 0)  -->
<svg version="1.1" id="Calque_1" xmlns="http://www.w3.org/2000/svg" xmlns:xlink="http://www.w3.org/1999/xlink" x="0px" y="0px"
	 viewBox="0 0 113.4 113.4" style="enable-background:new 0 0 113.4 113.4;" xml:space="preserve">
<style type="text/css">
	.st0{fill:#BA1A1D;}
</style>
<g>
	<path class="st0" d="M44.1,39.5c0.4,0,0.9-0.2,1.3-0.6c0.5-0.7,0.4-1.6-0.3-2.1c-4.2-3.2-10.1-0.2-10.4-0.1c-0.8,0.4-1.1,1.3-0.7,2
		c0.4,0.8,1.3,1.1,2,0.7c0-0.1,4.5-2.3,7.2-0.2C43.5,39.4,43.8,39.5,44.1,39.5z"/>
	<path class="st0" d="M54.4,39.2c2.6-2.1,6.8,0.1,6.8,0.1c0.2,0.1,0.5,0.2,0.7,0.2c0.5,0,1-0.3,1.2-0.7c0.4-0.7,0.1-1.6-0.6-2
		c-0.2-0.2-5.9-3.2-10,0.1c-0.6,0.5-0.7,1.5-0.2,2.1C52.8,39.6,53.8,39.7,54.4,39.2z"/>
	<path class="st0" d="M45.6,48.8c0.3,0.7,1.1,1.6,3,1.8h0.1c0.8,0,1.4-0.6,1.6-1.3c0-0.8-0.6-1.5-1.4-1.6c-0.2-0.1-0.3-0.1-0.4-0.1
		c0-0.2,0.2-0.6,0.4-0.8c0-0.1,0.1-0.1,0.1-0.2l1.2-2c0.4-0.7,0.2-1.7-0.5-2.1C49,42.1,48,42.3,47.6,43l-1.1,1.9
		C46.1,45.4,44.9,47.2,45.6,48.8z"/>
	<path class="st0" d="M55.9,54.7c-0.5-0.7-1.4-0.9-2.1-0.5c-5.2,3.2-10.1,0.7-10.3,0.6c-0.7-0.4-1.6-0.1-2,0.6s-0.1,1.6,0.6,2
		c0.2,0.1,2.7,1.4,6.1,1.4c2.1,0,4.6-0.5,7.2-2C56.1,56.3,56.3,55.4,55.9,54.7z"/>
	<path class="st0" d="M103.4,36.1H77.5c-0.3-1-0.8-1.8-1.4-2.6c2.7-9.5-1.3-19.1-1.5-19.4c-0.1,0-0.1-0.1-0.1-0.1
		C66-1.3,45.7,0.5,30.8,6.7c-10.9,4.5-8.6,23.5-8,27.5c-0.9,1.2-1.6,2.7-1.9,4.5c-1,5.8,5.3,10.7,7.1,11.9
		c0.7,3.9,3.3,13.2,12.8,16.6v0.7c-3.1,0.9-5.9,3.8-6.9,5.1c-3.3,0.4-17.3,2.9-17.8,17.5v12.3c-0.2,1.4,0.3,4,3.8,5.2
		c0.2,0.1,0.3,0.1,0.5,0.1h21.9h0.3h13.7h0.3h20.2c0.1,0,0.1,0,0.2,0c1.8-0.3,5.3-2,5.3-6.4v-2.1c0.1,0.1,0.3,0.1,0.5,0.1h20.6
		c0.6,0,1-0.4,1-1V37.1C104.4,36.5,104,36.1,103.4,36.1z M70.2,33c1,0.5,2.2,1.1,3.1,2c0,0.1,0.1,0.1,0.2,0.1
		c0.8,0.8,1.4,1.9,1.3,3.1c-0.5,4.4-1.3,6.8-4.5,8.6L70.2,33L70.2,33z M32,9.4c3-1.3,29.9-11.7,39.9,5.9c0.3,0.8,3.3,8.4,1.7,16.1
		c-1.2-0.8-2.5-1.3-3.4-1.7c0-0.3,0.1-8.2-3.8-12.2c-1.5-1.5-3.3-2.3-5.5-2.3c-2.4,0-4.1,0.5-5.4,1.3c-1,0.6-1.5,1.3-1.9,1.8
		c-0.4,0.4-0.7,0.8-1.3,1.2l-0.1,0.1c-0.5,0.2-1.4,0.7-3.3,0.7c-2.2,0-3.2-0.9-4.5-2.2c-2.1-1.9-4.7-4.4-11.2-1.2
		c-4.4,2.1-4.8,6.3-5.3,11.5l-0.1,1.4c-0.6,0.3-1.4,0.8-2.3,1.5C24.9,25.3,24.6,12.5,32,9.4z M23.9,39.3c0.2-1.5,0.9-2.7,1.7-3.7
		c0,0,0,0,0-0.1c0.6-0.7,1.2-1.3,1.8-1.8c-0.3,3.8-0.2,7.8,0.2,12.8C25.6,44.6,23.4,41.9,23.9,39.3z M30.8,48.5
		c-0.6-7.7-0.6-13.1,0-18.4l0.1-1.5c0.5-5.4,0.8-7.8,3.6-9.1c1.9-0.8,3.2-1.2,4.2-1.2c1.6,0,2.5,0.9,3.5,2c1.5,1.3,3.2,3,6.6,3
		c2.7,0,4.1-0.8,4.7-1.1l0.1-0.1c0-0.1,0.1-0.1,0.1-0.1c1.1-0.6,1.6-1.3,2.1-1.9c0.4-0.5,0.7-0.8,1.2-1.2c0.7-0.4,2-0.7,3.7-0.7
		c1.4,0,2.5,0.5,3.4,1.4c3.1,3.1,3,10,3,10.1v18.6c-0.2,1.4-2.4,17.1-18.4,17.1c-0.1,0-0.2,0-0.3,0C31.9,65.2,30.8,49.2,30.8,48.5z
		 M57.8,67.9v-1.3c1.5-0.7,2.8-1.5,4-2.5v5.3C60.3,68.7,58.8,68.2,57.8,67.9z M43.8,68c1.4,0.3,2.9,0.4,4.6,0.5c0.1,0,0.2,0,0.3,0
		c2.3,0,4.3-0.3,6.1-0.8V69c0,0.1,0,0.2,0,0.3v4.5c0,0.4-0.4,4.2-6.1,4.2c-4.3,0-4.8-3.6-4.9-4.2C43.8,73.8,43.8,68,43.8,68z
		 M40.8,71.1v2.8V74c0.2,2.4,2,7,7.9,7c6.9,0,9-4.6,9.1-7.1v-2.8c1.7,0.5,4.1,1.5,5.1,3.5c-0.6,2.1-3.8,11.8-13.7,12.1
		c-0.6,0-1.2,0-1.8-0.1h-0.1c-0.2,0-0.3,0-0.5,0c-7.7-1.2-10-9.4-10.5-11.7C37.3,73.8,39.1,71.9,40.8,71.1z M49.3,89.7
		c0.4,0,0.7-0.1,1.1-0.1l3.9,15.6h-9.8l3.6-15.5C48.5,89.7,48.9,89.7,49.3,89.7z M19.1,103.4c0-0.2,0-0.3,0-0.4V90.6
		c0.5-11.5,10.7-14,14.4-14.5c1.2,4.7,4.6,11.4,11.6,13.1l-3.7,16H20.7C19,104.5,19,103.6,19.1,103.4z M79.3,101.8
		c0,2.7-2,3.3-2.6,3.4H57.4l-4-16.1c7.9-2.2,11.2-9.8,12.3-12.9C79,78.5,79.4,88.9,79.4,89.3L79.3,101.8L79.3,101.8z M102.4,97.8
		H82.8c-0.2,0-0.4,0.1-0.5,0.1v-8.6c0-0.2-0.4-13.7-16.8-16.2c-0.5-0.9-1.1-1.6-1.8-2.3c0.1-0.1,0.1-0.3,0.1-0.5v-8.1
		c3.9-4.2,5.5-9.4,6.1-12c2.7-1.1,4.4-2.6,5.6-4.3c0,0.1,0,0.2,0,0.3c0,0.6,0.4,1,1,1h23.4c0.6,0,1-0.4,1-1s-0.4-1-1-1H76.4
		c-0.3,0-0.5,0.1-0.6,0.2c1.2-2.1,1.6-4.5,1.9-7c0-0.1,0-0.3,0-0.4h24.7C102.4,38,102.4,97.8,102.4,97.8z"/>
	<path class="st0" d="M76.4,64.4h14.9c0.6,0,1-0.4,1-1s-0.4-1-1-1H76.4c-0.6,0-1,0.4-1,1S75.8,64.4,76.4,64.4z"/>
	<path class="st0" d="M99.8,50.4h-8.5c-0.6,0-1,0.4-1,1s0.4,1,1,1h8.5c0.6,0,1-0.4,1-1S100.4,50.4,99.8,50.4z"/>
	<path class="st0" d="M76.4,52.4h4.4c0.6,0,1-0.4,1-1s-0.4-1-1-1h-4.4c-0.6,0-1,0.4-1,1S75.8,52.4,76.4,52.4z"/>
	<path class="st0" d="M76.4,56.6h18c0.6,0,1-0.4,1-1s-0.4-1-1-1h-18c-0.6,0-1,0.4-1,1C75.4,56.2,75.8,56.6,76.4,56.6z"/>
	<path class="st0" d="M99.8,59H76.4c-0.6,0-1,0.4-1,1s0.4,1,1,1h23.4c0.6,0,1-0.4,1-1S100.4,59,99.8,59z"/>
	<path class="st0" d="M99.8,67.5h-19c-0.6,0-1,0.4-1,1s0.4,1,1,1h19c0.6,0,1-0.4,1-1S100.4,67.5,99.8,67.5z"/>
	<path class="st0" d="M99.8,72.7h-5.4c-0.6,0-1,0.4-1,1s0.4,1,1,1h5.4c0.6,0,1-0.4,1-1S100.4,72.7,99.8,72.7z"/>
	<path class="st0" d="M86,72.7h-9.6c-0.6,0-1,0.4-1,1s0.4,1,1,1H86c0.6,0,1-0.4,1-1S86.6,72.7,86,72.7z"/>
</g>
</svg>
