<?xml version="1.0" encoding="utf-8"?>
<!-- Generator: Adobe Illustrator 26.5.0, SVG Export Plug-In . SVG Version: 6.00 Build 0)  -->
<svg version="1.1" id="Calque_1" xmlns="http://www.w3.org/2000/svg" xmlns:xlink="http://www.w3.org/1999/xlink" x="0px" y="0px"
	 viewBox="0 0 113.4 113.4" style="enable-background:new 0 0 113.4 113.4;" xml:space="preserve">
<style type="text/css">
	.st0{fill:#BA191B;}
</style>
<g>
	<path class="st0" d="M36.6,18.2c-8.6,0-15.6,7-15.6,15.6s7,15.6,15.6,15.6s15.6-7,15.6-15.6S45.2,18.2,36.6,18.2z M36.6,46.4
		c-6.9,0-12.6-5.7-12.6-12.6s5.7-12.6,12.6-12.6s12.6,5.7,12.6,12.6S43.5,46.4,36.6,46.4z"/>
	<path class="st0" d="M41.3,24.6c-0.7-0.4-1.6-0.1-2,0.7s-0.1,1.6,0.7,2c1.2,0.6,2.2,1.6,3,2.7c0.5,0.8,0.8,1.8,1,2.8
		c0.1,0.7,0.8,1.2,1.5,1.2c0.1,0,0.2,0,0.3,0c0.8-0.1,1.4-0.9,1.2-1.7c-0.2-1.4-0.7-2.7-1.4-3.8C44.4,26.7,42.9,25.4,41.3,24.6z"/>
	<path class="st0" d="M31.2,24.9c-3,1.8-4.9,5.1-5,8.7c0,2,0.5,3.9,1.5,5.6c0.3,0.5,0.8,0.7,1.3,0.7c0.3,0,0.5-0.1,0.8-0.2
		c0.7-0.4,0.9-1.3,0.5-2.1c-0.9-1.5-1.1-3-1.1-4c0.1-2.5,1.5-4.9,3.6-6.2c0.7-0.4,0.9-1.3,0.5-2.1C32.9,24.7,31.9,24.5,31.2,24.9z"
		/>
	<path class="st0" d="M108.6,63.8c-0.2-0.4-1.7-4.4-4.9-5.7c-1.4-0.6-3-0.5-4.4,0.2c-0.7,0.4-1.6,0.9-2.5,1.6
		c-0.6-0.6-1.8-1.1-4.2-2.1c-2.2-0.9-5.1,0-7.7,1.4c-0.1-0.2-0.3-0.4-0.6-0.5c-0.1-0.1-2.9-1.4-6.1-1c-3.5,0.3-7.8,3.5-8.3,3.9
		c-0.4,0.3-0.6,0.8-0.6,1.3c-5,0-10.5-0.5-11.8-0.6c-5.9-2.9-10.8-3.1-14.4-2.4c7.8-2,14.3-7.5,17.7-14.7l7.6,1.9l-0.6,2.2
		c-0.1,0.4,0,0.8,0.2,1.1s0.5,0.6,0.9,0.7l23.1,6c0.8,0.2,1.6,0.3,2.3,0.3c4.1,0,7.8-2.7,8.9-6.9c1.3-4.9-1.6-9.9-6.6-11.2l-23.1-6
		c-0.8-0.2-1.6,0.3-1.8,1.1L71,37.7L63.4,36c0.1-0.7,0.1-1.5,0.1-2.2C63.5,19,51.4,6.9,36.6,6.9S9.7,19,9.7,33.8
		s12.1,26.9,26.9,26.9c2,0,3.9-0.2,5.7-0.6c-2.4,0.6-4.2,1.7-5.3,2.4c-2.6,1.9-8.5,5.1-11.1,6.5l-1.4-2.6c-1.1-1.9-3.3-2.5-5.3-1.6
		l-13.3,7c-1.9,1.1-2.5,3.4-1.6,5.3l14.1,26.4c0.5,0.9,1.3,1.6,2.3,1.9c0.4,0.1,0.7,0.2,1.1,0.2c0.6,0,1.3-0.2,1.9-0.5l13.3-7
		c1.9-1.1,2.5-3.4,1.6-5.3l-1.8-3.4c2.1-1.4,6.9-4.2,11.1-3c6.8,2.1,19.4,5,26.9,1.7C82,85,107,66.3,108.1,65.5
		C108.6,65.1,108.8,64.4,108.6,63.8z M74.4,36.6L96,42.2c3.3,0.9,5.3,4.3,4.4,7.6s-4.3,5.3-7.6,4.4l-21.6-5.6l0.5-2.1
		c0-0.1,0.1-0.1,0.1-0.2l1.7-6.5c0-0.1,0-0.2,0-0.3L74.4,36.6z M70.2,40.6l-0.9,3.6l-7.2-1.8c0.4-1.1,0.7-2.2,0.9-3.4L70.2,40.6z
		 M12.7,33.8c0-13.2,10.7-23.9,23.9-23.9s23.9,10.7,23.9,23.9S49.8,57.7,36.6,57.7S12.7,47,12.7,33.8z M91.5,60.5
		c1.7,0.7,2.5,1.1,2.9,1.3c-0.6,0.5-1.3,1.1-2,1.7c-2.6,2.3-5.6,4.9-8.4,6.6c-0.6-1.5-1.6-3-3.2-4.3C84,62.9,89.3,59.6,91.5,60.5z
		 M78.7,60.6c1.3-0.1,2.5,0.1,3.4,0.4c-1.6,1.2-2.9,2.3-3.5,2.7c-0.2,0.1-0.3,0.3-0.4,0.5c-1.4-0.6-3-1-4.9-1.2
		C74.8,61.9,77,60.7,78.7,60.6z M35.6,95.5l-13.2,7c-0.2,0.1-0.5,0.2-0.8,0.1c-0.2,0-0.4-0.2-0.5-0.4l0,0L7,75.7
		c-0.3-0.5-0.1-1,0.4-1.3l13.2-7c0.2-0.1,0.3-0.1,0.5-0.1c0.3,0,0.6,0.2,0.8,0.5l1.9,3.5c0,0.1,0.1,0.3,0.1,0.4
		c0.1,0.1,0.2,0.3,0.3,0.4l9.2,17.2c0,0.3,0.1,0.5,0.3,0.7l0.1,0.1l2.2,4.1C36.2,94.7,36,95.2,35.6,95.5z M73.6,85.4
		c-6.9,3-19.7-0.3-24.9-1.9C43.5,82,38,85,35.4,86.7l-8.1-15.1C30,70.2,36,67,38.8,64.9c2.2-1.5,8.4-4.6,17.9,0.1
		c0.2,0.1,0.3,0.1,0.5,0.2c0.3,0,7.4,0.7,13.4,0.6c0.1,0,0.3,0,0.4,0c5.4,0,8.9,1.9,10.4,5.5c-0.7,0.2-1.4,0.4-2.1,0.4h-0.1
		c-6.9-0.2-14.9-0.4-14.9-0.4l-0.1,3c0,0,8,0.2,14.9,0.4c0.1,0,0.1,0,0.2,0c5,0,10.4-4.8,15.2-9c2.4-2.1,4.6-4.1,6.1-4.7
		c0.7-0.3,1.4-0.4,2-0.1c1.2,0.5,2.2,1.9,2.8,3C100.6,67.4,79.7,82.8,73.6,85.4z"/>
</g>
</svg>
