<?xml version="1.0" encoding="utf-8"?>
<!-- Generator: Adobe Illustrator 26.5.0, SVG Export Plug-In . SVG Version: 6.00 Build 0)  -->
<svg version="1.1" id="Calque_1" xmlns="http://www.w3.org/2000/svg" xmlns:xlink="http://www.w3.org/1999/xlink" x="0px" y="0px"
	 viewBox="0 0 113.4 113.4" style="enable-background:new 0 0 113.4 113.4;" xml:space="preserve">
<style type="text/css">
	.st0{fill:#BA1A1D;}
</style>
<g>
	<path class="st0" d="M110.5,97.1h-6v-49c0-0.8-0.7-1.5-1.5-1.5H86.8c-0.8,0-1.5,0.7-1.5,1.5v49H80V64.4c0-0.8-0.7-1.5-1.5-1.5H62.3
		c-0.8,0-1.5,0.7-1.5,1.5v32.7H54V62c0-0.8-0.7-1.5-1.5-1.5H36.3c-0.8,0-1.5,0.7-1.5,1.5v35.1h-5.5V72.9c0-0.8-0.7-1.5-1.5-1.5H11.6
		c-0.8,0-1.5,0.7-1.5,1.5v24.2H1.8c-0.8,0-1.5,0.9-1.5,2s0.7,2,1.5,2h108.7c0.8,0,1.5-0.9,1.5-2C112,98,111.3,97.1,110.5,97.1z
		 M88.3,49.6h13.2v47.5H88.3V49.6z M63.8,65.9H77v31.2H63.8V65.9z M37.8,63.5H51v33.6H37.8V63.5z M13.1,74.4h13.2v22.7H13.1V74.4z"
		/>
	<path class="st0" d="M19.7,63.5c0.3,0,0.6-0.1,0.8-0.3l24-16.2l23.6,10.5c0.6,0.3,1.3,0.2,1.7-0.3l16.1-16.6c0.6-0.6,0.6-1.5,0-2.1
		s-1.5-0.6-2.1,0L68.4,54.4L45.1,43.9c-0.5-0.2-1.1-0.2-1.5,0.1L18.9,60.7c-0.7,0.5-0.9,1.4-0.4,2.1C18.7,63.3,19.2,63.5,19.7,63.5z
		"/>
	<path class="st0" d="M94.9,36.8c8.4,0,15.2-6.8,15.2-15.2S103.3,6.4,94.9,6.4s-15.2,6.8-15.2,15.2C79.7,30,86.5,36.8,94.9,36.8z
		 M94.9,9.4c6.7,0,12.2,5.5,12.2,12.2s-5.5,12.2-12.2,12.2s-12.2-5.5-12.2-12.2S88.2,9.4,94.9,9.4z"/>
	<path class="st0" d="M90,28.7c1.4,1.6,3.5,2.5,5.8,2.5c1.9,0,3.4-0.6,4.3-1.2l-0.6-1.7c-0.7,0.3-2,0.9-3.5,0.9s-2.9-0.6-4-1.7
		c-0.8-0.8-1.4-2-1.6-3.7h8.1v-1.4h-8.3c0-0.2,0-0.3,0-0.5c0-0.4,0.1-0.8,0.1-1.2h8.2v-1.4h-8c0.3-1.5,0.8-2.8,1.7-3.6
		c1-1.1,2.3-1.6,3.8-1.6c1.3,0,2.5,0.4,3.2,0.8l0.6-1.9c-0.8-0.4-2.1-0.9-3.8-0.9c-2.4,0-4.2,0.9-5.7,2.4c-1.1,1.1-2,2.8-2.3,4.8
		h-1.9v1.4h1.7c-0.1,0.4-0.1,0.8-0.1,1.3c0,0.1,0,0.3,0,0.4h-1.6v1.4h1.8C88.2,25.8,88.9,27.5,90,28.7z"/>
</g>
</svg>
