<?xml version="1.0" encoding="utf-8"?>
<!-- Generator: Adobe Illustrator 26.5.0, SVG Export Plug-In . SVG Version: 6.00 Build 0)  -->
<svg version="1.1" id="Calque_1" xmlns="http://www.w3.org/2000/svg" xmlns:xlink="http://www.w3.org/1999/xlink" x="0px" y="0px"
	 viewBox="0 0 113.4 113.4" style="enable-background:new 0 0 113.4 113.4;" xml:space="preserve">
<style type="text/css">
	.st0{fill:#BA191B;}
</style>
<g>
	<path class="st0" d="M39.3,19.8c-11.6,0-21,9.4-21,21s9.4,21,21,21s21-9.4,21-21S50.9,19.8,39.3,19.8z M39.3,57.8
		c-9.4,0-17-7.6-17-17s7.6-17,17-17s17,7.6,17,17S48.7,57.8,39.3,57.8z"/>
	<path class="st0" d="M105.1,89.4L82.5,66.3c-0.4-0.4-0.9-0.6-1.4-0.6l0,0c-0.5,0-1,0.2-1.4,0.6l-3.3,3.2L68.7,62
		c4.3-6,6.9-13.3,6.9-21.2c0-20-16.3-36.3-36.3-36.3S3,20.8,3,40.8s16.3,36.3,36.3,36.3c7.5,0,14.4-2.3,20.2-6.2l7.6,7.6l-2.3,2.3
		c-0.8,0.8-0.8,2,0,2.8l22.6,23.2c2.4,2.4,5.6,3.7,8.9,3.7c3.2,0,6.3-1.2,8.8-3.6C109.8,102.2,109.9,94.3,105.1,89.4z M7,40.8
		C7,23,21.5,8.5,39.3,8.5S71.6,23,71.6,40.8S57.1,73.1,39.3,73.1S7,58.6,7,40.8z M62.7,68.5c1.2-1,2.4-2.1,3.5-3.3l7.4,7.1L70,75.8
		L62.7,68.5z M102.2,104.2c-3.3,3.2-8.7,3.2-12-0.1L69,82.3l2.2-2.2l0.1-0.1l5.5-5.4l4.2-4.1l21.2,21.7
		C105.5,95.5,105.5,100.9,102.2,104.2z"/>
	<path class="st0" d="M48.3,32.8c-0.9,0.6-1.2,1.9-0.6,2.8c1,1.4,1.5,3.3,1.5,5.3c0,1.4-0.2,2.7-0.8,4c-0.4,1,0.1,2.2,1.1,2.6
		c0.2,0.1,0.5,0.1,0.7,0.1c0.8,0,1.5-0.5,1.9-1.3c0.7-1.8,1-3.5,1-5.4c0-2.8-0.7-5.4-2.1-7.5C50.5,32.5,49.2,32.2,48.3,32.8z"/>
	<path class="st0" d="M39.3,26.8c-4.7,0-9.2,2.5-11.8,6.5c-1.5,2.2-2.2,4.8-2.2,7.5c0,1.1,0.9,2,2,2s2-0.9,2-2
		c0-1.9,0.5-3.8,1.6-5.3c1.8-2.9,5.1-4.7,8.4-4.7c1.1,0,2-0.9,2-2S40.4,26.8,39.3,26.8z"/>
</g>
</svg>
