<?xml version="1.0" encoding="utf-8"?>
<!-- Generator: Adobe Illustrator 26.5.0, SVG Export Plug-In . SVG Version: 6.00 Build 0)  -->
<svg version="1.1" id="Calque_1" xmlns="http://www.w3.org/2000/svg" xmlns:xlink="http://www.w3.org/1999/xlink" x="0px" y="0px"
	 viewBox="0 0 113.4 113.4" style="enable-background:new 0 0 113.4 113.4;" xml:space="preserve">
<style type="text/css">
	.st0{fill:#BA191A;}
</style>
<g>
	<path class="st0" d="M22,53.4h2.9l-2.8,4c-0.3,0.5-0.2,1.1,0.2,1.4c0.3,0.2,1.4,0.9,5,1c1,0.1,1.5,0.2,1.7,0.3l-1.7,4.5
		c-0.1,0.3-0.1,0.6,0.1,0.9c0.2,0.2,0.5,0.4,0.8,0.4h10.2c0.5,0,1.1-0.4,1.1-1c0-0.6-0.4-1-1-1h-8.8l1.2-3.2c0.1-0.4,0.2-1-0.1-1.6
		c-0.5-0.8-1.6-1.2-3.5-1.3c-1.4,0-2.3-0.2-2.9-0.3l2.8-3.9c0.1-0.1,0.1-0.1,0.1-0.2h6.6c0.3,0,0.5-0.1,0.7-0.3
		c4.7-4.6,4.7-4.6,4.7-5.1c0-0.4,0-0.5,0-0.6v-0.1h32.4c0.6,0,1-0.3,1-0.9c0-0.6-0.4-1-1-1H32.2c-1.5,0-2.8-1.3-2.8-2.8
		s1.3-2.8,2.8-2.8h38.1c0.1,0,1.4-0.1,2.2-1.3c0.8-1.1,0.8-2.8,0.1-4.9c-1.6-4.8-2.9-6.3-3-6.4c-0.4-0.4-1-0.5-1.4-0.1
		c-0.4,0.4-0.5,1-0.1,1.4c0,0.1,1.1,1.4,2.6,5.7c0.7,2,0.4,2.8,0.2,3.1c-0.2,0.4-0.6,0.4-0.6,0.4H39.2v-1.2c0-2.6-2.1-4.7-4.7-4.7
		h-0.1c0.8-1.9,2.8-5.5,6.6-8.3c8.8-6.5,21.7,0,21.8,0.1c0.4,0.3,1,0.1,1.3-0.4c0.3-0.4,0.1-1-0.4-1.3s-14-7.2-23.9,0.1
		c-4.8,3.4-6.9,8-7.6,9.8h-2.5c1.7-3.8,7.7-15.5,18.9-15.5c14.1,0,22.7,5.1,26.1,15.5c3.5,10.6-4.7,22.8-4.8,22.9
		c-0.1,0.2-0.2,0.3-0.2,0.5c0,0.3-0.6,8.4,1.1,12.7c0.1,0.4,0.5,0.6,0.9,0.6c0.1,0,0.2,0,0.3,0c0.5-0.2,0.8-0.8,0.6-1.3
		c-1.4-3.4-1.1-10.2-1-11.6c1.2-1.8,8.5-13.6,4.9-24.4c-3.7-11.4-12.8-16.9-27.9-16.9c-13.5,0-19.9,14.6-21.1,17.5H20
		c-3.5,0-6.2,2.7-6.2,6.2v7.2C13.8,49.7,17.5,53.4,22,53.4z M15.8,38c0-2.4,1.8-4.2,4.2-4.2h12.6h0.3h1.6c1.5,0,2.7,1.2,2.7,2.7v1.2
		h-5c-2.6,0-4.8,2.2-4.8,4.8c0,2.6,2.2,4.8,4.8,4.8h5.1c0,0.1,0,0.2,0,0.4c-0.4,0.4-1.5,1.4-3.8,3.7H22c-3.4,0-6.2-2.8-6.2-6.2V38z"
		/>
	<path class="st0" d="M48.6,75.9c-1.3-0.8-2.8-0.3-3-0.2c-0.5,0.2-0.8,0.8-0.6,1.3s0.8,0.8,1.3,0.6c0.2-0.1,0.8-0.2,1.2,0
		c0.2,0.2,0.3,0.5,0.4,1c0.3,2.8,1.3,7.5,1.3,7.7c0.1,0.5,0.5,0.8,1,0.8c0.1,0,0.1,0,0.3-0.1c0.6-0.1,0.9-0.7,0.8-1.2
		c0,0-1-4.8-1.3-7.5C49.8,76.9,49.1,76.2,48.6,75.9z"/>
	<path class="st0" d="M57.9,67.9c0.2-0.5,0-1.1-0.5-1.3s-1.1,0-1.3,0.5c-1,2.1-10.4,6.5-17.4,8.5c-1.8,0.5-3.1,0.4-4-0.2
		c-1.1-0.8-1.7-2.5-1.8-4.9c-0.1-1.2-0.5-2.1-1.2-2.5c-1-0.6-2.1-0.2-2.2-0.1c-0.5,0.2-0.7,0.8-0.5,1.3s0.8,0.7,1.3,0.5
		c0.1,0,0.3,0,0.3,0c0,0.1,0.2,0.2,0.2,0.9c0.1,3.1,1,5.2,2.6,6.4c0.9,0.6,1.9,0.9,3.1,0.9c0.8,0,1.6-0.2,2.8-0.3
		C43.7,76.3,56.3,71.6,57.9,67.9z"/>
	<path class="st0" d="M76.7,74.2c-0.1-0.3-0.3-0.5-0.6-0.6c-0.2-0.1-0.6-0.1-0.8,0.1L42.7,93.9c-0.4,0.3-0.6,1-0.3,1.4
		c0.3,0.4,0.9,0.6,1.4,0.3l31.6-19.5l10.2,24.5c0.1,0.4,0.5,0.6,0.9,0.6c0.1,0,0.3,0,0.3-0.1c0.5-0.2,0.7-0.8,0.5-1.3L76.7,74.2z"/>
	<path class="st0" d="M73.4,79.4L44.1,97.2c-0.4,0.3-0.6,0.9-0.3,1.4c0.2,0.3,0.6,0.5,0.9,0.5c0.2,0,0.4,0,0.5-0.1l29.3-17.9
		c0.4-0.3,0.6-0.9,0.3-1.4C74.5,79.3,73.9,79.1,73.4,79.4z"/>
	<path class="st0" d="M72.2,69.5c-0.5,0.3-0.6,0.9-0.3,1.4l0.9,1.4c0.1,0.3,0.5,0.5,0.8,0.5c0.2,0,0.4-0.1,0.6-0.2
		c0.5-0.3,0.6-0.9,0.3-1.4l-0.9-1.4C73.3,69.3,72.7,69.2,72.2,69.5z"/>
	<path class="st0" d="M81.1,68.3h0.7l-0.9,1.3c-0.2,0.2-0.1,0.5,0.1,0.7c0.1,0.1,0.6,0.4,2.1,0.4c0.3,0,0.5,0.1,0.6,0.1l-0.6,1.7
		c0,0.2,0,0.4,0.1,0.5c0.1,0.1,0.2,0.2,0.4,0.2h4.1c0.3,0,0.4-0.3,0.4-0.6s-0.2-0.5-0.5-0.5h-3.4l0.4-1.1c0.1-0.2,0.2-0.5,0-0.8
		c-0.2-0.3-0.7-0.5-1.5-0.5c-0.4,0-0.8-0.1-1-0.1l0.9-1.3h2.8c0.1,0,0.3-0.1,0.4-0.1l1.8-1.8c0-0.1,0.1-0.3,0.1-0.4v-0.1h12.7
		c0.3,0,0.5-0.2,0.5-0.5s-0.2-0.5-0.5-0.5H85.2c-0.5,0-1-0.5-1-1s0.5-1,1-1h15.1c0.1,0,0.6,0,1-0.5c0.3-0.4,0.3-1.1,0-2
		c-0.6-1.9-1.1-2.5-1.2-2.6c-0.2-0.2-0.5-0.2-0.7,0c-0.2,0.2-0.2,0.5,0,0.7c0,0,0.5,0.5,1,2.2c0.3,0.8,0.1,1,0.1,1.1
		c-0.1,0.1-0.2,0.1-0.2,0.1H88.1v-0.4c0-1.1-0.8-1.9-1.9-2c0.4-0.8,1.1-2,2.5-3c3.5-2.6,8.6,0,8.6,0c0.3,0.1,0.6,0.1,0.7-0.2
		c0.1-0.3,0-0.6-0.2-0.7c-0.2-0.2-5.6-3-9.6,0c-1.9,1.4-2.7,3.1-3.1,3.9h-0.9c0.8-1.7,3.1-6,7.3-6c5.6,0,8.9,2,10.2,6.1
		c1.3,4.1-1.9,9.1-1.9,9.1c-0.1,0-0.1,0.1-0.1,0.2c0,0.1-0.2,3.4,0.4,5.1c0.1,0.2,0.3,0.3,0.5,0.3c0.1,0,0.1,0,0.3,0
		c0.3-0.1,0.4-0.3,0.3-0.6c-0.5-1.3-0.4-4-0.4-4.6c0.5-0.8,3.4-5.5,2-9.8c-1.4-4.4-5.2-6.7-11.2-6.7c-5.2,0-7.8,5.4-8.4,6.9h-3
		c-1.4,0-2.6,1.2-2.6,2.6v2.8C77.7,66.8,79.2,68.3,81.1,68.3z M78.7,62.1c0-0.8,0.6-1.6,1.6-1.6h3.1c0.1,0,0.2,0,0.3,0h1.6h0.1h0.7
		c0.5,0,1,0.5,1,1v0.4h-1.9c-1.1,0-2,0.9-2,2s0.9,2,2,2H87l-1.4,1.4h-4.5c-1.3,0-2.4-1.1-2.4-2.4V62.1z"/>
	<path class="st0" d="M90.2,77.5c0.1,0.3,0.3,0.4,0.6,0.3c0.1,0,0.3-0.1,0.4,0c0.1,0.1,0.1,0.2,0.1,0.3c0.1,1.2,0.5,3,0.5,3.1
		c0.1,0.2,0.3,0.4,0.5,0.4c0,0,0.1,0,0.2-0.1c0.3-0.1,0.5-0.3,0.4-0.6c0,0-0.4-1.8-0.5-2.9c-0.1-0.6-0.4-0.9-0.6-1
		c-0.3-0.2-0.6-0.2-0.9-0.2c1.9-0.8,4-1.9,4.4-2.8c0.1-0.2,0-0.5-0.3-0.6c-0.2-0.1-0.5,0-0.6,0.3c-0.3,0.7-3.9,2.5-6.8,3.3
		c-0.6,0.2-1.2,0.2-1.5-0.1c-0.5-0.5-0.6-1.4-0.6-1.9c-0.1-0.6-0.3-0.9-0.6-1.1c-0.3-0.2-0.7-0.2-0.9-0.1c-0.3,0.2-0.4,0.4-0.3,0.7
		c0.1,0.3,0.4,0.4,0.7,0.3c0,0,0.1,0,0.1,0.2c0,0.7,0.1,1.9,1,2.6c0.4,0.3,0.9,0.4,1.4,0.4c0.3,0,0.7,0,1-0.1
		c0.5-0.2,1.4-0.4,2.3-0.8C90.2,77.2,90.1,77.3,90.2,77.5z"/>
	<path class="st0" d="M107.2,86.5L103,76.3c0-0.2-0.2-0.3-0.3-0.3c-0.1,0-0.3,0-0.4,0.1l-12.9,8c-0.3,0.2-0.3,0.5-0.2,0.7
		c0.2,0.3,0.5,0.3,0.7,0.2l12.3-7.7l4,9.7c0.1,0.2,0.3,0.3,0.5,0.3c0.1,0,0.1,0,0.2-0.1C107.2,87,107.3,86.8,107.2,86.5z"/>
	<path class="st0" d="M101.6,78.5l-11.7,7c-0.3,0.2-0.3,0.5-0.2,0.7c0.1,0.1,0.2,0.2,0.4,0.2c0.1,0,0.2,0,0.3,0l11.7-7
		c0.3-0.2,0.3-0.5,0.2-0.7C102.1,78.4,101.8,78.4,101.6,78.5z"/>
	<path class="st0" d="M100.9,74.5c-0.2,0.2-0.3,0.5-0.1,0.7l0.4,0.6c0.1,0.1,0.2,0.2,0.4,0.2c0.1,0,0.2,0,0.3-0.1
		c0.2-0.2,0.3-0.5,0.1-0.7l-0.4-0.6C101.4,74.4,101.1,74.3,100.9,74.5z"/>
	<path class="st0" d="M16.4,90c-0.4-0.3-1-0.1-1.1-0.1c-0.2,0.1-0.4,0.3-0.3,0.6c0.1,0.2,0.3,0.4,0.6,0.3c0.1,0,0.2,0,0.3,0
		c0.1,0,0.1,0.1,0.1,0.2c0.1,0.9,0.4,2.4,0.4,2.5c0.1,0.2,0.3,0.4,0.5,0.4c0.4-0.1,0.5-0.3,0.4-0.5c0-0.1-0.3-1.6-0.4-2.5
		C16.9,90.4,16.6,90.1,16.4,90z"/>
	<path class="st0" d="M19.5,87.1c0.1-0.2,0-0.5-0.3-0.6c-0.2-0.1-0.5,0-0.6,0.3c-0.3,0.6-3,1.9-5.6,2.7c-0.5,0.2-0.9,0.2-1.2,0
		c-0.5-0.3-0.5-1.1-0.5-1.4c0-0.5-0.1-0.8-0.4-1C10.8,87,10.7,87,10.6,87h2.2c0.3,0,0.6-0.2,0.6-0.5c0-0.3-0.2-0.5-0.5-0.5h-2.8
		l0.3-0.8c0.1-0.1,0.1-0.4,0-0.6C10.1,84.1,9.5,84,9.1,84c-0.2,0-0.4-0.1-0.6-0.1l0.8-1.1h2.3c0.1,0,0.3-0.1,0.4-0.1l1.4-1.4
		c0-0.1,0.1-0.3,0.1-0.4h10.4c0.1,0,0.2,0,0.3-0.1c-0.5,1.4-1.1,2.3-1.1,2.3c-0.1,0-0.1,0.1-0.1,0.2c0,0.1-0.2,2.8,0.3,4.2
		c0.1,0.2,0.3,0.3,0.5,0.3c0.1,0,0.1,0,0.2,0c-0.3,0.2-0.3,0.5-0.2,0.7l0.3,0.5c0.1,0.1,0.2,0.2,0.4,0.2c0.1,0,0.2,0,0.3,0
		c0.3-0.2,0.3-0.5,0.2-0.7L24.7,88c-0.1-0.2-0.3-0.3-0.5-0.3c0.2-0.1,0.3-0.3,0.2-0.5c-0.4-1-0.3-2.9-0.3-3.7
		c0.5-0.7,2.8-4.6,1.6-8.1c-1.3-3.8-4.3-5.6-9.3-5.6c-4.2,0-6.5,4.3-7,5.7H7c-1.2,0-2.2,0.9-2.2,2.1v2.3c0,1.6,1.3,2.9,2.9,2.9h0.4
		l-0.8,1.1c-0.1,0.1-0.1,0.3-0.1,0.4c0,0.1,0.1,0.2,0.2,0.3C7.5,84.7,7.9,84.9,9,85c0.2,0,0.3,0,0.4,0l-0.6,1.3c0,0.2,0,0.4,0.1,0.5
		C9,86.9,9.1,87,9.3,87h1c-0.1,0-0.3,0.1-0.3,0.1c-0.2,0.2-0.3,0.5-0.2,0.7c0.1,0.2,0.3,0.3,0.5,0.3v0.1c0,0.6,0.1,1.6,0.9,2.2
		c0.3,0.3,0.7,0.4,1.1,0.4c0.3,0,0.6,0,1-0.4C13.3,90.4,18.9,88.7,19.5,87.1z M16.3,70.7c4.6,0,7.2,1.6,8.3,5
		c0.5,1.6,0.2,3.2-0.2,4.6c0-0.2-0.2-0.4-0.5-0.4H11c-0.4,0-0.7-0.4-0.7-0.7c0-0.4,0.4-0.7,0.7-0.7h12.4c0.3,0,0.7-0.2,0.9-0.5
		c0.3-0.4,0.3-1,0-1.8c-0.6-1.6-0.9-2-1-2.1c-0.2-0.2-0.5-0.3-0.7-0.1c-0.2,0.2-0.3,0.5-0.1,0.7c0,0,0.3,0.4,0.8,1.9
		c0.3,0.6,0.2,0.8,0.1,0.9h-9.9v-0.3c0-0.9-0.6-1.6-1.5-1.7c0.3-0.6,0.9-1.6,1.9-2.4c2.8-2.1,7,0,7,0c0.3,0.1,0.6,0,0.7-0.2
		c0.1-0.3,0-0.6-0.2-0.7c-0.2-0.1-4.7-2.5-8,0c-1.4,1.1-2.2,2.6-2.5,3.3h-0.6C11.1,74,13,70.7,16.3,70.7z M7.7,81.8
		c-1,0-1.9-0.9-1.9-1.9v-2.3c0-0.6,0.5-1.1,1.2-1.1h2.5c0.1,0,0.2,0,0.3,0h1.3h0.1h0.6c0.4,0,0.7,0.3,0.7,0.7v0.3H11
		c-0.8,0-1.7,0.7-1.7,1.7c0,0.8,0.7,1.7,1.7,1.7h1.3l-0.9,0.9H7.7z"/>
	<path class="st0" d="M25.7,89.3c0-0.2-0.2-0.3-0.3-0.3c-0.1,0-0.3,0-0.4,0.1l-10.6,6.6c-0.3,0.2-0.3,0.5-0.2,0.7
		c0.2,0.3,0.5,0.3,0.7,0.2L25,90.3l3.2,7.9c0.1,0.2,0.3,0.3,0.5,0.3c0.1,0,0.1,0,0.2-0.1c0.3-0.2,0.4-0.4,0.3-0.7L25.7,89.3z"/>
	<path class="st0" d="M24.4,91.1l-9.5,5.8c-0.3,0.2-0.3,0.5-0.2,0.7c0.1,0.1,0.2,0.2,0.4,0.2c0.1,0,0.2,0,0.3,0l9.5-5.8
		c0.3-0.2,0.3-0.5,0.2-0.7C24.9,91,24.6,91,24.4,91.1z"/>
</g>
</svg>
