<?xml version="1.0" encoding="utf-8"?>
<!-- Generator: Adobe Illustrator 26.5.0, SVG Export Plug-In . SVG Version: 6.00 Build 0)  -->
<svg version="1.1" id="Calque_1" xmlns="http://www.w3.org/2000/svg" xmlns:xlink="http://www.w3.org/1999/xlink" x="0px" y="0px"
	 viewBox="0 0 113.4 113.4" style="enable-background:new 0 0 113.4 113.4;" xml:space="preserve">
<style type="text/css">
	.st0{fill:#BA191B;}
</style>
<g>
	<path class="st0" d="M57.4,85.3H15.3c-3.7,0-6.7-3-6.7-6.7v-1.1h46.9c0.8,0,1.5-0.6,1.5-1.3s-0.7-1.3-1.5-1.3H8.6V32.1
		c0-3.7,3-6.7,6.7-6.7h53.5c0.8,0,1.5-0.7,1.5-1.5s-0.7-1.5-1.5-1.5H15.3c-5.3,0-9.7,4.4-9.7,9.7v46.5c0,5.3,4.4,9.7,9.7,9.7h42.1
		c0.8,0,1.5-0.7,1.5-1.5S58.2,85.3,57.4,85.3z"/>
	<path class="st0" d="M84.6,23.9c0,0.8,0.7,1.5,1.5,1.5h3.5c3.7,0,6.7,3,6.7,6.7v32.4c0,0.8,0.7,1.5,1.5,1.5s1.5-0.7,1.5-1.5V32.1
		c0-5.3-4.4-9.7-9.7-9.7h-3.5C85.3,22.4,84.6,23.1,84.6,23.9z"/>
	<path class="st0" d="M67.4,18.2h4.1v38c0,0.8,0.7,1.5,1.5,1.5s1.5-0.7,1.5-1.5V16.7c0-0.8-0.7-1.5-1.5-1.5h-1.8l6.6-6.3l6.4,6.4
		h-1.6c-0.8,0-1.5,0.7-1.5,1.5v37.4c0,0.8,0.7,1.5,1.5,1.5s1.5-0.7,1.5-1.5V18.3h3.7c0.6,0,1.2-0.4,1.4-0.9s0.1-1.2-0.3-1.6l-10-10
		c-0.6-0.6-1.5-0.6-2.1,0l-10.4,9.9c-0.4,0.4-0.6,1.1-0.4,1.6C66.2,17.8,66.8,18.2,67.4,18.2z"/>
	<path class="st0" d="M66.1,61c0.8,0,1.5-0.7,1.5-1.5V32.3c0-0.8-0.7-1.5-1.5-1.5h-9.3c-0.8,0-1.5,0.7-1.5,1.5v36.2h-4.6V43.7
		c0-0.8-0.7-1.5-1.5-1.5h-9.7c-0.8,0-1.5,0.7-1.5,1.5v24.8h-3.9V55.4c0-0.8-0.7-1.5-1.5-1.5H23c-0.8,0-1.5,0.7-1.5,1.5v13.1h-6
		c-0.8,0-1.5,0.7-1.5,1.5s0.7,1.5,1.5,1.5h41.3c0.8,0,1.5-0.7,1.5-1.5V33.8h6.3v25.7C64.6,60.3,65.3,61,66.1,61z M31.1,68.5h-6.6
		V56.9h6.6V68.5z M47.7,68.5H41V45.2h6.7V68.5z"/>
	<rect x="14.6" y="28.2" class="st0" width="3.2" height="3.2"/>
	<rect x="27.4" y="28.2" class="st0" width="3.2" height="3.2"/>
	<rect x="21.3" y="28.2" class="st0" width="3.2" height="3.2"/>
	<path class="st0" d="M79.6,67.1c-6.2,0-11.3,5.1-11.3,11.3c0,6.2,5.1,11.3,11.3,11.3c6.2,0,11.3-5.1,11.3-11.3S85.8,67.1,79.6,67.1
		z M79.6,87.7c-5.1,0-9.3-4.2-9.3-9.3c0-5.1,4.2-9.3,9.3-9.3c5.1,0,9.3,4.2,9.3,9.3S84.7,87.7,79.6,87.7z"/>
	<path class="st0" d="M108.2,99.5l-8.1-8.2c-0.6-0.6-1.5-0.6-2.1,0l-1,1l-1.6-1.5c2.7-3.4,4.3-7.7,4.3-12.4c0-11.1-9-20.1-20.1-20.1
		s-20.1,9-20.1,20.1s9,20.1,20.1,20.1c4.6,0,8.8-1.5,12.1-4.1l1.5,1.5l-0.7,0.6c-0.3,0.3-0.5,0.7-0.5,1.1s0.2,0.8,0.4,1.1l8.1,8.2
		c1,1,2.4,1.6,3.8,1.6c1.3,0,2.6-0.5,3.7-1.5C110.1,104.9,110.2,101.7,108.2,99.5z M79.6,95.5c-9.4,0-17.1-7.7-17.1-17.1
		s7.7-17.1,17.1-17.1S96.7,69,96.7,78.4S89,95.5,79.6,95.5z M94.7,94.5l-1.4-1.4c0.3-0.3,0.6-0.5,0.8-0.8l1.4,1.4L94.7,94.5z
		 M106,104.8c-0.9,0.9-2.3,0.8-3.2-0.1l-7-7.1l3.2-3.1l7,7.1C106.9,102.6,106.8,103.9,106,104.8z"/>
	<path class="st0" d="M84.9,74.5c-0.3,0.1-0.4,0.4-0.2,0.7c0.8,1,1.2,2.1,1.2,3.1c0,0.7-0.2,1.5-0.6,2.3c-0.1,0.3,0,0.5,0.4,0.6
		c0.1,0,0.2,0,0.2,0c0.3,0,0.5-0.1,0.6-0.3c0.5-1,0.7-1.8,0.7-2.7c0-1.2-0.5-2.5-1.4-3.7C85.6,74.4,85.2,74.3,84.9,74.5z"/>
	<path class="st0" d="M79.7,70.9c-2.5,0-4.9,1.3-6.4,3.5c-0.7,1.2-1.1,2.6-1.1,4c0,0.6,0.4,1,1,1s1-0.4,1-1c0-1,0.3-2.1,0.8-2.9
		c1.1-1.6,2.8-2.6,4.7-2.6c0.6,0,1-0.4,1-1S80.3,70.9,79.7,70.9z"/>
	<path class="st0" d="M93.4,21.6h2.3c2.3,0,4.1,1.8,4.1,4.1c0,0.8,0.7,1.5,1.5,1.5s1.5-0.7,1.5-1.5c0-3.9-3.2-7.1-7.1-7.1h-2.3
		c-0.8,0-1.5,0.7-1.5,1.5S92.6,21.6,93.4,21.6z"/>
</g>
</svg>
