<?xml version="1.0" encoding="utf-8"?>
<!-- Generator: Adobe Illustrator 27.3.1, SVG Export Plug-In . SVG Version: 6.00 Build 0)  -->
<svg version="1.1" id="Calque_3" xmlns="http://www.w3.org/2000/svg" xmlns:xlink="http://www.w3.org/1999/xlink" x="0px" y="0px"
	 viewBox="0 0 113.4 113.4" style="enable-background:new 0 0 113.4 113.4;" xml:space="preserve">
<style type="text/css">
	.st0{fill:#BA1C1E;}
</style>
<g>
	<path class="st0" d="M62.8,84.6H39.9l7.2-55.9h1.8l0,0.5c0,0.1,0,0.2,0,0.3l14.1,54.4L62.8,84.6z M41,83.6h21L48,29.7h0L41,83.6z"
		/>
	<path class="st0" d="M65,78.7l-13-50h14.9l-0.1,0.6c0,0.1,0,0.2,0,0.2v44.4L65,78.7z M53.3,29.7l11.8,45.6l0.6-1.6v-44H53.3z"/>
	<path class="st0" d="M69.8,65.4V29.5c0-0.1,0-0.2,0-0.2l-0.1-0.6h11.7c0.5,0,1.1,0.1,1.6,0.3l0.8,0.3L83,29.9
		c-0.2,0.2-0.4,0.4-0.5,0.6L69.8,65.4z M70.8,29.7v30l10.8-29.6c0.1-0.1,0.1-0.3,0.2-0.4c-0.2,0-0.3,0-0.5,0H70.8z"/>
	<path class="st0" d="M36.8,84.6h-3.1c-2.3,0-4.1-1.9-4.1-4.1V32.8c0-2.3,1.9-4.1,4.1-4.1H44L36.8,84.6z M33.7,29.7
		c-1.7,0-3.1,1.4-3.1,3.1v47.6c0,1.7,1.4,3.1,3.1,3.1h2.2l6.9-53.9H33.7z"/>
	<path class="st0" d="M81.3,84.6H69.5l0.2-0.6c0-0.1,0.1-0.3,0.1-0.4l0-9.3l15.6-42.9v49C85.5,82.8,83.6,84.6,81.3,84.6z M70.8,83.6
		h10.5c1.7,0,3.1-1.4,3.1-3.1V37.1L70.8,74.6V83.6C70.8,83.6,70.8,83.6,70.8,83.6z"/>
	<path class="st0" d="M84.8,88.1H30.2c-2.3,0-4.1-1.9-4.1-4.1V29.4c0-2.3,1.9-4.1,4.1-4.1h54.6c2.3,0,4.1,1.9,4.1,4.1v54.6
		C88.9,86.2,87.1,88.1,84.8,88.1z M30.2,26.2c-1.7,0-3.1,1.4-3.1,3.1v54.6c0,1.7,1.4,3.1,3.1,3.1h54.6c1.7,0,3.1-1.4,3.1-3.1V29.4
		c0-1.7-1.4-3.1-3.1-3.1H30.2z M81.3,84.6H69.5l0.2-0.6c0-0.1,0.1-0.3,0.1-0.4l0-9.3l15.6-42.9v49C85.5,82.8,83.6,84.6,81.3,84.6z
		 M70.8,83.6h10.5c1.7,0,3.1-1.4,3.1-3.1V37.1L70.8,74.6V83.6C70.8,83.6,70.8,83.6,70.8,83.6z M62.8,84.6H39.9l7.2-55.9h1.8l0,0.5
		c0,0.1,0,0.2,0,0.3l14.1,54.4L62.8,84.6z M41,83.6h21L48,29.7h0L41,83.6z M36.8,84.6h-3.1c-2.3,0-4.1-1.9-4.1-4.1V32.8
		c0-2.3,1.9-4.1,4.1-4.1H44L36.8,84.6z M33.7,29.7c-1.7,0-3.1,1.4-3.1,3.1v47.6c0,1.7,1.4,3.1,3.1,3.1h2.2l6.9-53.9H33.7z M65,78.7
		l-13-50h14.9l-0.1,0.6c0,0.1,0,0.2,0,0.2v44.4L65,78.7z M53.3,29.7l11.8,45.6l0.6-1.6v-44H53.3z M69.8,65.4V29.5c0-0.1,0-0.2,0-0.2
		l-0.1-0.6h11.7c0.5,0,1.1,0.1,1.6,0.3l0.8,0.3L83,29.9c-0.2,0.2-0.4,0.4-0.5,0.6L69.8,65.4z M70.8,29.7v30l10.8-29.6
		c0.1-0.1,0.1-0.3,0.2-0.4c-0.2,0-0.3,0-0.5,0H70.8z"/>
</g>
</svg>
