<?xml version="1.0" encoding="utf-8"?>
<!-- Generator: Adobe Illustrator 26.5.0, SVG Export Plug-In . SVG Version: 6.00 Build 0)  -->
<svg version="1.1" id="Calque_1" xmlns="http://www.w3.org/2000/svg" xmlns:xlink="http://www.w3.org/1999/xlink" x="0px" y="0px"
	 viewBox="0 0 113.4 113.4" style="enable-background:new 0 0 113.4 113.4;" xml:space="preserve">
<style type="text/css">
	.st0{fill:#BA191A;}
</style>
<g>
	<path class="st0" d="M62,56.1c1.8,0,3.2-1.4,3.2-3.2s-1.4-3.2-3.2-3.2s-3.2,1.4-3.2,3.2S60.2,56.1,62,56.1z M62,52.1
		c0.4,0,0.8,0.4,0.8,0.8s-0.4,0.8-0.8,0.8s-0.8-0.4-0.8-0.8S61.6,52.1,62,52.1z"/>
	<path class="st0" d="M80.7,70.5H68.6c-1.1,0-2,0.9-2,2s0.9,2,2,2h12.1c1.1,0,2-0.9,2-2S81.8,70.5,80.7,70.5z"/>
	<path class="st0" d="M62,69.3c-1.8,0-3.2,1.4-3.2,3.2s1.4,3.2,3.2,3.2s3.2-1.4,3.2-3.2S63.8,69.3,62,69.3z M62,73.3
		c-0.4,0-0.8-0.4-0.8-0.8s0.4-0.8,0.8-0.8s0.8,0.4,0.8,0.8S62.4,73.3,62,73.3z"/>
	<path class="st0" d="M80.7,89.4H68.6c-1.1,0-2,0.9-2,2s0.9,2,2,2h12.1c1.1,0,2-0.9,2-2S81.8,89.4,80.7,89.4z"/>
	<path class="st0" d="M62,88.2c-1.8,0-3.2,1.4-3.2,3.2c0,1.8,1.4,3.2,3.2,3.2s3.2-1.4,3.2-3.2S63.8,88.2,62,88.2z M62,92.2
		c-0.4,0-0.8-0.4-0.8-0.8s0.4-0.8,0.8-0.8s0.8,0.4,0.8,0.8S62.4,92.2,62,92.2z"/>
	<path class="st0" d="M84.1,34c-4.9,0-8.8,3.9-8.8,8.8s3.9,8.8,8.8,8.8s8.8-3.9,8.8-8.8S89,34,84.1,34z M84.1,47.6
		c-2.6,0-4.8-2.2-4.8-4.8s2.2-4.8,4.8-4.8c2.6,0,4.8,2.2,4.8,4.8C88.9,45.4,86.7,47.6,84.1,47.6z"/>
	<path class="st0" d="M103.6,46l-2.6-2.4v-2.4l2.7-2.5c0.6-0.6,0.8-1.5,0.4-2.3l-1.9-4c-0.3-0.7-1.1-1.2-1.9-1.1l-3.5,0.2l-1.6-1.6
		l-0.3-4.1c0-0.7-0.5-1.3-1.1-1.7l-3.7-1.9c-0.8-0.4-1.7-0.2-2.3,0.4l-3,3h-2l-2.8-3c-0.6-0.6-1.5-0.8-2.3-0.4L73.8,24
		c-0.7,0.3-1.2,1.1-1.1,1.9l0.2,3.8l-1.6,1.6h-3.9c-0.8,0-1.4,0.4-1.8,1.1l-2.2,4.3c-0.4,0.8-0.2,1.8,0.5,2.4l2.9,2.5v1.3
		c-0.4-0.4-0.9-0.7-1.5-0.7h-39c-3.4,0-6.2,2.8-6.2,6.2v10.3c0,1.6,0.6,3,1.6,4.1c-0.9,1-1.5,2.3-1.5,3.8v11.1
		c0,1.5,0.5,2.8,1.4,3.8c-0.9,1-1.4,2.4-1.4,3.8v11c0,3.2,2.6,5.8,5.8,5.8h59.2c3.1,0,5.8-2.7,5.8-5.8v-11c0-1.5-0.5-2.8-1.4-3.8
		c0.9-1,1.4-2.3,1.4-3.7V66.6c0-1.4-0.5-2.6-1.3-3.6c0.2,0,0.4-0.1,0.6-0.2l4-1.8c0.8-0.3,1.2-1.1,1.2-1.9l-0.2-4l1.6-1.5h3.7
		c0.8,0,1.5-0.5,1.8-1.2l1.8-4.1C104.5,47.5,104.3,46.6,103.6,46z M24.1,48.4c0-1.2,1-2.2,2.2-2.2H64c-0.5,0.6-0.6,1.3-0.4,2
		l1.8,4.6c0.3,0.8,1.2,1.3,2,1.3l3.7-0.2l1.3,1.3v3.9c0,0.8,0.5,1.5,1.2,1.8h-0.9H26.3c-1.2,0-2.2-1-2.2-2.2
		C24.1,58.7,24.1,48.4,24.1,48.4z M87,77.8c0,0.9-0.8,1.6-1.7,1.6H25.9c-1,0-1.7-0.7-1.7-1.7V66.6c0-1,0.7-1.7,1.7-1.7h0.4h46.5
		h12.5c1,0,1.7,0.7,1.7,1.7V77.8z M85.3,60.9h-3.6l1.2-1.4h2.2l1.6,1.6C86.3,61,85.8,60.9,85.3,60.9z M87,96.3
		c0,0.9-0.9,1.8-1.8,1.8H26c-1,0-1.8-0.8-1.8-1.8v-11c0-1,0.8-1.8,1.8-1.8h59.2c1,0,1.8,0.8,1.8,1.8V96.3z M99.2,49.6H96
		c-0.5,0-1,0.2-1.4,0.6l-2.8,2.7c-0.4,0.4-0.6,1-0.6,1.6l0.2,3.5l-1.5,0.7l-2.6-2.6c-0.4-0.4-0.9-0.6-1.4-0.6H82
		c-0.6,0-1.1,0.3-1.5,0.7l-2,2.4l-1.9-0.8v-3.5c0-0.5-0.2-1.1-0.6-1.4l-2.6-2.5c-0.4-0.4-1-0.6-1.5-0.6L68.6,50l-0.8-2l2.3-2.2
		c0.4-0.4,0.6-0.9,0.6-1.5v-3.7c0-0.6-0.3-1.1-0.7-1.5L67.6,37l0.9-1.8H72c0.5,0,1-0.2,1.4-0.6l2.8-2.8c0.4-0.4,0.6-0.9,0.6-1.5V27
		l1.3-0.6l2.4,2.5c0.4,0.4,0.9,0.6,1.5,0.6h3.7c0.5,0,1-0.2,1.4-0.6l2.6-2.6l1.4,0.7l0.2,3.8c0,0.5,0.2,1,0.6,1.3l2.8,2.7
		c0.4,0.4,0.9,0.6,1.5,0.6l3.1-0.1l0.7,1.5l-2.2,2.1c-0.4,0.4-0.6,0.9-0.6,1.5v4.1c0,0.6,0.2,1.1,0.7,1.5l2.2,2L99.2,49.6z"/>
</g>
</svg>
