<?xml version="1.0" encoding="utf-8"?>
<!-- Generator: Adobe Illustrator 27.3.1, SVG Export Plug-In . SVG Version: 6.00 Build 0)  -->
<svg version="1.1" id="Calque_3" xmlns="http://www.w3.org/2000/svg" xmlns:xlink="http://www.w3.org/1999/xlink" x="0px" y="0px"
	 viewBox="0 0 113.4 113.4" style="enable-background:new 0 0 113.4 113.4;" xml:space="preserve">
<style type="text/css">
	.st0{fill:#BA1C1E;}
</style>
<g>
	<path class="st0" d="M84.8,25.7H30.2c-2,0-3.6,1.6-3.6,3.6v54.6c0,2,1.6,3.6,3.6,3.6h54.6c2,0,3.6-1.6,3.6-3.6V29.4
		C88.4,27.4,86.8,25.7,84.8,25.7z M70.3,29.6c0-0.1,0-0.2,0-0.3h11c0.5-0.1,1,0,1.4,0.2c-0.3,0.2-0.5,0.5-0.6,0.8L70.3,62.6V29.6z
		 M33.5,84.1c-1.8,0-3.5-1.6-3.5-3.6V32.8c0-2,1.6-3.6,3.6-3.6h9.7l-7.1,54.9H33.5z M62.5,84h-22l7.1-54.9h0.8v0.1
		c0,0.1,0,0.2,0.1,0.3l14.1,54.2L62.5,84z M66.2,29.5v44.3L65,77L52.6,29.2h13.6C66.2,29.3,66.2,29.4,66.2,29.5z M85,80.5
		c0,2-1.7,3.6-3.7,3.6H70.2c0-0.2,0.1-0.3,0.1-0.5v-9.1L85,34.3V80.5z"/>
</g>
</svg>
