<?xml version="1.0" encoding="utf-8"?>
<!-- Generator: Adobe Illustrator 26.5.0, SVG Export Plug-In . SVG Version: 6.00 Build 0)  -->
<svg version="1.1" id="Calque_1" xmlns="http://www.w3.org/2000/svg" xmlns:xlink="http://www.w3.org/1999/xlink" x="0px" y="0px"
	 viewBox="0 0 113.4 113.4" style="enable-background:new 0 0 113.4 113.4;" xml:space="preserve">
<style type="text/css">
	.st0{fill:#BA1A1D;}
</style>
<g>
	<path class="st0" d="M51.6,92.2c0.1,0.2,0.2,0.3,0.4,0.3c0,0,0,0,0.1,0c0.1,0,0.1,0,0.2-0.1h1.3c0.2,0,0.3-0.1,0.4-0.2l4.1-11.5
		c0-0.1,0-0.2,0-0.3s-0.2-0.2-0.3-0.2h-1.6c-0.2,0-0.3,0.1-0.4,0.3l-1.9,5.7c-0.3,1-0.6,1.9-0.9,2.9c-0.2-0.9-0.5-1.8-0.9-2.9
		l-1.8-5.6c0-0.2-0.2-0.3-0.4-0.3h-1.6c-0.1,0-0.2,0.1-0.3,0.2c-0.1,0.1-0.1,0.2-0.1,0.3L51.6,92.2z"/>
	<path class="st0" d="M59,92.6h1.4c0.2,0,0.4-0.2,0.4-0.4v-4.6h1c1,0,1.6,0.3,1.9,1.9c0.1,0.5,0.2,0.9,0.3,1.3
		c0.2,0.8,0.3,1.3,0.5,1.5c0.1,0.1,0.2,0.2,0.3,0.2h1.5c0.1,0,0.3-0.1,0.3-0.2c0.1-0.1,0-0.3,0-0.4c-0.2-0.2-0.4-1-0.6-1.9
		c-0.1-0.3-0.2-0.7-0.3-1c-0.3-1.1-0.7-1.8-1.3-2.2c1.1-0.6,1.8-1.7,1.8-3c0-1-0.4-1.9-1-2.5c-0.8-0.7-1.9-1-3.5-1
		c-1,0-2.2,0-2.9,0.2c-0.2,0-0.3,0.2-0.3,0.4v11.4C58.6,92.4,58.8,92.6,59,92.6z M60.9,85.6v-3.5c0,0,0.1,0,0.1,0
		c0.3,0,0.6-0.1,1-0.1c1.5,0,2.2,0.6,2.2,1.7c0,1.1-0.9,1.8-2.2,1.8H60.9z"/>
	<path class="st0" d="M103.9,90.9l-2.1-9.9c-0.1-0.3-0.2-0.5-0.4-0.6c-0.2-0.1-0.5-0.2-0.8-0.1l-0.5,0.1c-0.5,0.1-0.9,0.7-0.7,1.2
		l1.3,6L84.5,76.9l-0.2-29.3c0-0.1,0-0.2-0.1-0.3c-0.1-0.3-0.2-0.5-0.5-0.6L59.4,32.9l0-19.3l4.3,4.4c0.4,0.4,1,0.4,1.4,0l0.3-0.3
		c0.2-0.2,0.3-0.4,0.3-0.7c0-0.3-0.1-0.5-0.3-0.7l-7.1-7.2c-0.2-0.2-0.6-0.3-0.9-0.3c-0.3,0-0.5,0.1-0.7,0.3l-7.1,7.2
		c-0.2,0.2-0.3,0.5-0.3,0.7c0,0.3,0.1,0.5,0.3,0.7l0.3,0.3c0.4,0.4,1,0.4,1.4,0l4.3-4.4l0,19.2L31.4,45.5c-0.3,0.2-0.5,0.5-0.5,0.9
		c0,0.1,0,0.3,0.1,0.4l-0.2,29.1l-16.6,9.9l1.5-5.9c0.1-0.5-0.2-1.1-0.7-1.2l-0.5-0.1c-0.3-0.1-0.5,0-0.8,0.1
		c-0.2,0.1-0.4,0.4-0.5,0.6L10.8,89c-0.1,0.3,0,0.7,0.2,0.9c0.1,0.2,0.3,0.4,0.6,0.5l9.8,2.4c0.1,0,0.2,0,0.2,0
		c0.2,0,0.4-0.1,0.5-0.2c0.2-0.1,0.4-0.4,0.4-0.6l0.1-0.5c0.1-0.5-0.2-1-0.7-1.2l-5.9-1.4l16.6-9.9l7,4c-0.1,0.8-0.2,1.6-0.2,2.5
		c0,10,8.1,18.1,18.1,18.1c10,0,18.1-8.1,18.1-18.1c0-0.5,0-1-0.1-1.4l7-4l16,10.6l-6,1.2c-0.5,0.1-0.9,0.6-0.8,1.1l0.1,0.5
		c0,0.3,0.2,0.5,0.4,0.7c0.2,0.1,0.4,0.2,0.6,0.2c0.1,0,0.1,0,0.2,0l9.9-1.9c0.3-0.1,0.6-0.3,0.7-0.6
		C103.9,91.4,104,91.2,103.9,90.9z M57.6,35.1l21.9,12.3L57.7,59.6L35.8,46.4L57.6,35.1z M33.8,50l21.7,13.1l0,4.3
		c-7.2,0.8-13.1,5.8-15.2,12.5l-6.6-3.7L33.8,50z M57.6,70.6c8.2,0,14.8,6.6,14.8,14.8s-6.6,14.8-14.8,14.8s-14.8-6.6-14.8-14.8
		S49.4,70.6,57.6,70.6z M60,67.5l0-4.3L81.5,51l0.1,26.3l-6.5,3.6C73.3,73.9,67.3,68.4,60,67.5z"/>
</g>
</svg>
