<?xml version="1.0" encoding="utf-8"?>
<!-- Generator: Adobe Illustrator 26.5.0, SVG Export Plug-In . SVG Version: 6.00 Build 0)  -->
<svg version="1.1" id="Calque_1" xmlns="http://www.w3.org/2000/svg" xmlns:xlink="http://www.w3.org/1999/xlink" x="0px" y="0px"
	 viewBox="0 0 113.4 113.4" style="enable-background:new 0 0 113.4 113.4;" xml:space="preserve">
<style type="text/css">
	.st0{fill:#BA1A1D;}
</style>
<g>
	<path class="st0" d="M108.7,35.7c-0.6-0.4-1.3-0.4-1.9-0.1L73.6,51.4c-2,0.4-6.9,1-9.2,0.1c-1.2-0.4-2.3-0.9-3.5-1.2
		c-1.4-1-6.5-3.9-15.2-4.6C39.2,45.1,33.5,46,30,46.9l0.2-0.8c0.2-0.9-0.2-1.8-0.9-2.2l-6-3.5l-13-7.4c-0.3-0.2-0.6-0.3-1-0.3H5.2
		c-1.1,0-2,0.9-2,2v31.9c0,0.9,0.6,1.6,1.4,1.9l16.3,5.3c0.2,0.1,0.4,0.1,0.6,0.1c0.3,0,0.7-0.1,1-0.2c0.5-0.3,0.8-0.7,1-1.3
		l0.2-0.9l4.1,2.3c-0.5,1.3-0.3,2.9,0.8,4l2.9,2.8l0.1,0.1c0.5,0.4,1,0.6,1.5,0.8c0.2,0.6,0.5,1.1,0.9,1.5l2.9,2.8l0.1,0.1
		c0.4,0.3,0.9,0.6,1.3,0.7c0.2,0.5,0.4,1.1,0.9,1.5l2.9,2.8c0.4,0.4,0.9,0.7,1.4,0.8c0.2,0.5,0.4,0.9,0.8,1.3l2.9,2.8l0.1,0.1
		c0.7,0.6,1.6,0.9,2.5,0.9s1.9-0.3,2.6-1l0.3-0.4c1.2,1.2,2.9,2.2,5,2.2c0.3,0,0.6,0,0.9-0.1c1.8-0.3,4.7-1.3,5.7-5.2
		c1.6-0.1,2.7-0.8,3.3-1.4c1-1.1,1.3-2.5,1.4-3.7c1-0.1,2.1-0.4,3.2-1.3c1.3-1,1.7-2.4,1.6-3.8c0.9-0.2,1.9-0.7,3-1.5
		c1.6-1.2,2-2.6,2.1-3.6c0-0.2,0-0.4,0-0.5l29.6-15.2c0.7-0.3,1.1-1,1.1-1.8V37.4C109.6,36.7,109.2,36.1,108.7,35.7z M7.2,36.7h1.6
		l11.4,6.5c-0.1,0.2-0.2,0.4-0.3,0.6l-5.7,23.3c0,0.1,0,0.2,0,0.3l-6.9-2.2V36.7H7.2z M17.8,68.6c0.1-0.2,0.2-0.3,0.2-0.5l5.6-22.9
		l2.3,1.4L20,69.4L17.8,68.6z M31.8,74.9c0.3-0.2,0.6-0.4,0.8-0.8c0,0,0,0,0-0.1l5.1-5.2l2.4,2.3L34,77.4l-2.4-2.3L31.8,74.9z
		 M43.1,74.1l2.4,2.3l-5.7,5.8l-0.4,0.4L37,80.3L43.1,74.1z M46.1,81.4l2.2-2.2l2.2,2.1l-6.1,6.3l-2.2-2.1L46.1,81.4z M49.6,92.6
		l-2.3-2.2l6.1-6.3l1.9,1.8c0,0.2,0,0.5,0.1,0.7L49.6,92.6z M57.9,93.5c-1.1,0.2-2-0.5-2.5-1.1l3-3.1l2.1,1.6
		C60,92.9,59,93.4,57.9,93.5z M74.4,77.4c-0.7,0.5-1.1,0.8-1.3,0.8c-0.1,0-0.3-0.1-0.7-0.4c-0.2-0.2-0.4-0.4-0.7-0.5
		c-0.2-0.2-0.4-0.4-0.7-0.6c-3-2.6-7.4-6.4-7.4-6.4l-2.6,3c0,0,4.4,3.8,7.4,6.4c0.3,0.3,0.7,0.6,1,0.8c0.4,0.8,0.6,2,0.2,2.3
		c-0.5,0.4-1.3,1.1-4.5-1.6c-2.9-2.4-7.1-5.7-7.1-5.7c-0.9-0.7-2.1-0.5-2.8,0.3s-0.5,2.1,0.3,2.8c0,0,4.2,3.3,7.1,5.7
		c0.6,0.5,1.4,1.2,2.5,1.8c0.1,0.8,0,1.8-0.3,2.1c-0.2,0.2-0.6,0.2-1.2,0.2l-3.8-2.9C59.7,85,59.4,84.4,59,84l-0.1-0.1l-3-2.9
		l-0.1-0.1c-0.4-0.3-0.9-0.6-1.3-0.7c-0.1-0.4-0.3-0.8-0.6-1.1c0-0.1-0.1-0.1-0.1-0.2l-2.9-2.8L50.8,76c-0.4-0.3-0.9-0.6-1.3-0.7
		c-0.2-0.5-0.4-0.9-0.7-1.3l-0.1-0.1L45.6,71l-0.1-0.1c-0.5-0.4-1-0.6-1.5-0.8c-0.1-0.5-0.4-1-0.8-1.4l-0.1-0.1l-2.9-2.8l-0.1-0.1
		c-1.5-1.3-3.7-1.2-5,0.1l-4.7,4.9l-5.7-3.2l4.2-16.2c2.3-0.7,8.9-2.3,16.3-1.7c2.9,0.2,5.4,0.8,7.4,1.3c-0.4,0.2-0.8,0.4-1.2,0.6
		c-4.2,2.4-8.3,3.7-8.4,3.7c-0.4,0.1-0.7,0.3-1,0.7c-1.3,1.6-2.8,5-0.6,7.8c2.2,2.8,5.7,3.5,9,1.9c2.1-1.1,5.9-3,5.9-3
		s0.1,0,0.1-0.1c0,0,2.3-1.3,3.5-0.1C62.2,65,74,75.5,74.4,76c0.2,0.2,0.5,0.6,0.5,0.9C74.9,76.9,74.8,77.1,74.4,77.4z M105.6,58.3
		L77,72.9c-1.1-1-12.2-10.9-14.3-13.1C61.5,58.5,60,58,58.5,58c-1.6,0-3.1,0.5-4.1,1.1c-0.5,0.2-3.9,2-5.8,3
		c-0.9,0.4-2.7,0.9-4.1-0.8c-0.5-0.7,0-1.8,0.3-2.4c1.4-0.5,4.9-1.8,8.5-3.9c2.3-1.3,4.1-1.5,5.9-1.1c0.1,0,0.2,0,0.3,0.1
		c1,0.3,2.1,0.7,3.3,1.1c4,1.6,10.9,0.3,11.7,0.1c0.2,0,0.3-0.1,0.5-0.2l30.5-14.5L105.6,58.3L105.6,58.3z"/>
</g>
</svg>
