<?xml version="1.0" encoding="utf-8"?>
<!-- Generator: Adobe Illustrator 26.5.0, SVG Export Plug-In . SVG Version: 6.00 Build 0)  -->
<svg version="1.1" id="Calque_1" xmlns="http://www.w3.org/2000/svg" xmlns:xlink="http://www.w3.org/1999/xlink" x="0px" y="0px"
	 viewBox="0 0 113.4 113.4" style="enable-background:new 0 0 113.4 113.4;" xml:space="preserve">
<style type="text/css">
	.st0{fill:#BA191B;}
</style>
<path class="st0" d="M105.7,33.7c1.1-2.6,1.2-5.2,0.4-7.6C101,11.7,61.2,8.9,56.7,8.6c-0.5,0-1.1,0.2-1.5,0.5
	c-0.4,0.4-0.6,0.9-0.6,1.5v10.5c0,1.1,0.9,2,2,2c1.1,0,2-0.9,2-2v-8.4c12.8,1,40.4,5.1,43.7,14.7c1.1,3.2-0.8,7.2-5.8,11.7
	c-0.4,0.4-0.7,0.9-0.7,1.5v2.3c-8.9-6.2-25.7-7.1-26.4-7.1c-1.1-0.1-2,0.8-2.1,1.9c-0.1,1.1,0.8,2,1.9,2.1c0.2,0,18,0.9,25.4,7.2
	c0.3,0.3,0.8,0.4,1.2,0.5v19.8c0,0.8,0.4,1.4,1.1,1.8c0.3,0.1,0.6,0.2,0.9,0.2c0.4,0,0.8-0.1,1.2-0.4c1.7-1.2,7.1-5.5,7.5-9.2
	c0-0.1,0-0.1,0-0.2V35.3C106.6,34.6,106.3,34,105.7,33.7z M102.6,59.4c-0.1,0.8-1.3,2.2-2.7,3.6V41.5c1-1,1.9-1.9,2.7-2.9V59.4z"/>
<path class="st0" d="M48.3,50.7C48.3,50.7,48.3,50.7,48.3,50.7C48.3,50.7,48.3,50.7,48.3,50.7C48.3,50.7,48.3,50.7,48.3,50.7z"/>
<path class="st0" d="M84.4,44c-3.7,1-7.9,1.7-12.5,2.2c0.2-0.6,0.2-1.4-0.3-2c-0.2-0.2-3.7-4.5-8.9-5.6c3.5-0.7,6.1-3.9,6.1-8
	c0-4.2-3.5-8.1-7.4-8.1c-2.9,0-5.2,2.2-6.4,4.5h-1c-1.8,0-3.2,1.4-3.2,3.2v2c0,1.8,1.4,3.2,3.2,3.2h1.6c0.8,1.1,1.9,2.1,3.2,2.7
	c-3.3-0.3-5.3-0.3-5.4-0.3h-0.1c-1.1,0.1-4.8,0.4-6.1,2.7c-0.3,0.6-1.2,1.4-2.1,2.2L41.7,40c1.8,0,2.9,0.1,2.9,0.1
	c0.6,0.1,1.1-0.1,1.6-0.5c0.4-0.4,0.7-0.9,0.7-1.5V10.6c0-0.6-0.3-1.1-0.7-1.5c-0.4-0.4-1-0.6-1.6-0.5C43.1,8.8,9,14.1,7.9,30.6
	c-0.1-0.1-0.1-0.1-0.1-0.2l0.1,31.7c0,0.5,0.2,1,0.6,1.3C18.8,73.3,35,76.7,49.8,77.5l1.6,21.8c0.1,1,1,1.8,2,1.8c0.1,0,0.1,0,0.2,0
	c1.1-0.1,1.9-1.1,1.8-2.2l-2-21.3c1.1,0,2.1,0,3.2,0c0.6,0,1.3,0,1.9,0c0,0.1,0,0.2,0,0.4l-1.3,21.2c0,1.1,0.9,1.9,2,1.9h0.1
	c1.1,0,2-1,1.9-2.1l0.5-11l4.1,15c0.2,0.8,1,1.4,1.8,1.4c-2.2,0.3-4.6,0.4-7.2,0.4c-13.6,0-22.3-4.2-22.3-7.1
	c0-1.7,3.2-4.3,10.1-5.8c1.1-0.2,1.8-1.3,1.5-2.4c-0.3-1.1-1.3-1.7-2.4-1.5C38.9,89.9,34,93.5,34,97.8c0,7.2,13.6,11.1,26.3,11.1
	s26.3-3.9,26.3-11.1c0-4.3-4.8-7.8-13-9.7c-0.1,0-0.2,0-0.2,0c-0.8-3.5-1.6-7.3-2.4-10.7c0-0.1-0.1-0.1-0.1-0.2
	c8-0.7,13.6-1.8,14.3-1.9c0.9-0.2,1.6-1,1.6-2V46c0.1-0.6-0.2-1.2-0.7-1.6S85,43.9,84.4,44z M61.3,26.6c0.6,0,1.2,0.3,1.8,0.7
	c-0.4-0.1-0.8-0.2-1.2-0.2H60C60.4,26.8,60.8,26.6,61.3,26.6z M54.6,33.4c-0.5,0-1-0.4-1-1v-1.4c0-0.5,0.4-1,1-1h6.6
	c0.5,0,1,0.4,1,1v1.4c0,0.5-0.4,1-1,1H54.6z M50.6,42.7c0.3-0.3,1.7-0.7,2.9-0.8c0.4,0,3.4,0.1,7.8,0.6c3.5,0.4,6.3,3.3,7,4.1
	c-6.9,0.5-14.3,0.5-21.4,0C47.9,45.7,49.7,44.1,50.6,42.7z M42.9,46.2c-2.2-0.2-4.3-0.5-6.3-0.8c0-0.5,0-0.9-0.1-1.4
	c-0.3-0.7-0.2-1-0.2-1c0.2-0.3,1.3-0.4,2.5-0.3L42.9,46.2z M42.9,13v23c-3.9-0.1-12.2,0.4-21.2,4.6c-0.3,0.1-0.6,0.4-0.8,0.6
	c-1.7-0.7-3.2-1.5-4.4-2.4c-2.8-1.9-4.4-4.1-4.7-6.4C10.5,21.3,32,15,42.9,13z M32.5,44.6c-2.2-0.5-4.4-1-6.4-1.6
	c2.4-0.9,4.6-1.6,6.7-2C32.4,41.8,32.1,43,32.5,44.6z M49.7,73.3c0,0.1,0,0.1,0,0.2c-13.8-0.7-28.6-3.7-38-12.3l0.2-20.8
	c1,1.3,0.7,0.7,2.4,1.8c5.2,3.5,13,5.9,21.9,7.2c-0.2,0.7,0,1.4,0.5,2l4.2,4.1c0.1,0.1,0.3,0.3,0.5,0.3c0.8,0.4,2.2,0.9,3.7,0.9
	c1.1,0,2.3-0.3,3.4-1c0.5-0.3,0.9-0.6,1.3-0.9v0.1C50.7,58.3,50.1,69.4,49.7,73.3z M60.5,65c-1.1,0-2,0.9-2,2v6.3
	c-1.6,0.3-3.1,0.3-4.8,0.3c0.1-1.7,1.2-15.1-0.1-19.7c-0.2-0.9-1-1.5-1.9-1.5l-3.5-1.5c0,0,0-0.1,0.1-0.1c-0.2,0.2-0.8,0.8-2,1.5
	c-0.9,0.6-2.3,0.2-2.8,0L41.1,50c2.4,0.3,4.8,0.5,7.3,0.6c0,0,0,0-0.1,0.1c5.9,0.3,11.8,0.3,17.5,0c-0.2,0.1-0.4,0.2-0.6,0.4
	c-0.8,0.8-0.8,2,0,2.8l2.2,2.2c0.4,0.4,0.9,0.6,1.4,0.6s1-0.2,1.4-0.6c0.8-0.8,0.8-2,0-2.8L68,51.1c-0.3-0.3-0.6-0.4-0.9-0.5
	c1-0.1,2-0.1,3-0.2c-0.1,0.3-0.1,0.7,0,1c0,0.1,0.3,1.3,1.1,3.8c0.1,0.4,0,0.9-0.3,1.3c-0.5,0.7-1.4,1.3-2.2,1.4
	c-1.1-0.3-4.5-3.1-7.4-6.1c-0.8-0.8-2-0.8-2.8-0.1c-0.8,0.8-0.8,2-0.1,2.8c3.1,3.2,7.1,6.9,9.9,7.3c-0.9,0.2-1.5,1-1.5,1.9v8.5
	c0,0.3,0.1,0.6,0.2,0.8c-1.4,0.1-2.9,0.2-4.5,0.2V67C62.5,65.9,61.6,65,60.5,65z M72.2,100.8c0.2,1,1,1.6,2,1.6c0.1,0,0.2,0,0.4,0
	c1.1-0.2,1.8-1.3,1.6-2.3c0-0.1-0.7-3.3-1.7-7.9c5.7,1.6,8.3,3.9,8.3,5.4c0,2.3-5.4,5.4-14.3,6.6c1-0.4,1.5-1.4,1.2-2.4l-6.4-23.1
	c-0.2-0.5-0.5-1-1-1.2c1.7-0.1,3.3-0.2,4.8-0.3c0,0.4,0,0.7,0.1,0.9C69.6,87.9,72.2,100.7,72.2,100.8z M70.7,72.9
	c0-0.2,0.1-0.4,0.1-0.5v-8.5c0-1-0.7-1.7-1.6-1.9c1.9-0.3,3.8-1.4,5-3.1c1-1.5,1.3-3.1,0.9-4.7c-0.8-2.5-1.1-3.7-1.1-3.7
	c0-0.2-0.1-0.3-0.2-0.4c3.3-0.4,6.3-0.9,9-1.5v22.8h0.1C80.7,71.8,76.3,72.4,70.7,72.9z"/>
</svg>
