<?xml version="1.0" encoding="utf-8"?>
<!-- Generator: Adobe Illustrator 26.5.0, SVG Export Plug-In . SVG Version: 6.00 Build 0)  -->
<svg version="1.1" id="Calque_1" xmlns="http://www.w3.org/2000/svg" xmlns:xlink="http://www.w3.org/1999/xlink" x="0px" y="0px"
	 viewBox="0 0 113.4 113.4" style="enable-background:new 0 0 113.4 113.4;" xml:space="preserve">
<style type="text/css">
	.st0{fill:#BA191A;}
</style>
<g>
	<path class="st0" d="M94.9,19.8c-0.3-0.3-0.7-0.4-1.1-0.4c-0.3,0-25.3,1.1-34.4-10.6c-0.3-0.4-0.7-0.6-1.2-0.6
		c-0.4,0-0.9,0.2-1.2,0.6c-9.3,11.7-34.7,10.6-35,10.6c-0.4,0-0.8,0.1-1.1,0.4c-0.3,0.3-0.5,0.7-0.5,1.1l0.4,44.2c0,0.1,0,0.1,0,0.2
		c0,0.3,4.2,28,37,38.9c0.2,0.1,0.3,0.1,0.5,0.1c0.4,0,0.7-0.1,1-0.4c0.1-0.1,0.2-0.2,0.3-0.3c-0.2,0.3-0.4,0.5-0.7,0.6
		c3.3-1.1,32-11.8,36-38.9c0-0.1,0-0.1,0-0.2l0.4-44.2C95.4,20.5,95.2,20.1,94.9,19.8z M59.7,103.6c0.1-0.1,0.1-0.3,0.2-0.4
		C59.8,103.3,59.8,103.4,59.7,103.6z M92,65c-3.7,24.4-29.2,34.6-33.6,36.2C28.7,91,24.2,66.6,23.9,65l-0.4-42.5
		c5.7,0,25.2-0.5,34.7-10.5c9.3,10,28.5,10.5,34.2,10.4L92,65z"/>
	<path class="st0" d="M88.5,25.2c-16.1,1.1-29.3-9.3-29.5-9.4c-0.5-0.4-1.3-0.4-1.9,0c-0.1,0.1-13.6,10.5-29.8,9.4
		c-0.4,0-0.8,0.1-1.1,0.4c-0.3,0.3-0.5,0.7-0.5,1.1v37.2V64c0.2,1,2.3,23.1,31.8,35.3c0.2,0.1,0.4,0.1,0.6,0.1c0.2,0,0.4,0,0.6-0.1
		C87.8,87.1,90,65,90.1,64v-0.1V26.7c0-0.4-0.2-0.8-0.5-1.1C89.3,25.3,88.9,25.2,88.5,25.2z M87.1,63.8C87,65,84.2,85,58.1,96.3
		C31.5,85,28.9,65,28.8,63.8V28.3c14.3,0.4,26-7,29.3-9.4c3.3,2.4,14.8,9.8,29,9.4V63.8z"/>
	<path class="st0" d="M47.4,43.4v6.5h-2.6c-0.8,0-1.5,0.7-1.5,1.5v22.3c0,0.8,0.7,1.5,1.5,1.5h26.4c0.8,0,1.5-0.7,1.5-1.5V51.4
		c0-0.8-0.7-1.5-1.5-1.5h-3.1v-6.5c0.1,0-1.3-7.7-10.2-8C48.8,35.7,47.4,43.4,47.4,43.4z M69.7,72.2H46.3V52.9h23.4V72.2z
		 M62.9,44.2c0,2.5,0,4.5,0,5.7H52.6c0-1.2,0-3.2,0-5.7c0-4,4.6-4.1,5.2-4.1C58.4,40.1,62.9,40.2,62.9,44.2z"/>
	<path class="st0" d="M56.1,63.3C56,63.6,56,64,56,64.4c0,1.8,0.7,3.2,1.6,3.2c0.9,0,1.6-1.4,1.6-3.2c0-0.4,0-0.8-0.1-1.1
		c0.9-0.5,1.5-1.4,1.5-2.6c0-1.8-1.6-3.2-3.5-2.9c-1.2,0.2-2.2,1.2-2.4,2.4C54.4,61.5,55.1,62.7,56.1,63.3z"/>
</g>
</svg>
