<?xml version="1.0" encoding="utf-8"?>
<!-- Generator: Adobe Illustrator 26.5.0, SVG Export Plug-In . SVG Version: 6.00 Build 0)  -->
<svg version="1.1" id="Calque_1" xmlns="http://www.w3.org/2000/svg" xmlns:xlink="http://www.w3.org/1999/xlink" x="0px" y="0px"
	 viewBox="0 0 113.4 113.4" style="enable-background:new 0 0 113.4 113.4;" xml:space="preserve">
<style type="text/css">
	.st0{fill:#BA191B;}
	.st1{fill:none;}
</style>
<g>
	<path class="st0" d="M102.3,64V23.1c0.1-0.2,0.1-0.3,0.1-0.5v-9c0-3.7-3-6.8-6.8-6.8H14c-3.7,0-6.8,3.1-6.8,6.8v9v70.5
		c0,5,4.1,9.1,9.1,9.1h50.6c0.1,0,0.2,0,0.2,0c4.6,4,10.5,6.4,17.1,6.4c14.3,0,26-11.7,26-26C110.2,75.3,107.2,68.7,102.3,64z
		 M10.2,13.6c0-2.1,1.7-3.8,3.8-3.8h81.6c2.1,0,3.8,1.7,3.8,3.8v7.5H10.2V13.6z M10.2,93.1v-69h89.1v37.4c-4.3-3.1-9.5-4.9-15.1-4.9
		c-14.3,0-26,11.7-26,26c0,6.3,2.3,12.1,6,16.6H16.3C12.9,99.2,10.2,96.5,10.2,93.1z M84.2,105.6c-12.7,0-23-10.3-23-23
		s10.3-23,23-23s23,10.3,23,23S96.9,105.6,84.2,105.6z"/>
	<path class="st0" d="M65.6,14H43.9c-0.8,0-1.5,0.7-1.5,1.5c0,0.8,0.7,1.5,1.5,1.5h21.7c0.8,0,1.5-0.7,1.5-1.5
		C67.1,14.7,66.4,14,65.6,14z"/>
	<path class="st0" d="M25.6,59.6h18.3c0.8,0,1.5-0.7,1.5-1.5s-0.7-1.5-1.5-1.5H25.6c-0.8,0-1.5,0.7-1.5,1.5S24.8,59.6,25.6,59.6z"/>
	<path class="st0" d="M25.6,66.2h33.3c0.8,0,1.5-0.7,1.5-1.5s-0.7-1.5-1.5-1.5H25.6c-0.8,0-1.5,0.7-1.5,1.5
		C24.1,65.5,24.8,66.2,25.6,66.2z"/>
	<path class="st0" d="M52.4,70.6H25.6c-0.8,0-1.5,0.7-1.5,1.5s0.7,1.5,1.5,1.5h26.8c0.8,0,1.5-0.7,1.5-1.5S53.2,70.6,52.4,70.6z"/>
	<path class="st0" d="M25.6,79.7h11.3c0.8,0,1.5-0.7,1.5-1.5s-0.7-1.5-1.5-1.5H25.6c-0.8,0-1.5,0.7-1.5,1.5S24.8,79.7,25.6,79.7z"/>
	<path class="st0" d="M49.1,76.7h-6.8c-0.8,0-1.5,0.7-1.5,1.5s0.7,1.5,1.5,1.5h6.8c0.8,0,1.5-0.7,1.5-1.5S49.9,76.7,49.1,76.7z"/>
	<path class="st0" d="M47.2,83.9H25.6c-0.8,0-1.5,0.7-1.5,1.5s0.7,1.5,1.5,1.5h21.6c0.8,0,1.5-0.7,1.5-1.5S48,83.9,47.2,83.9z"/>
	<path class="st0" d="M34.7,90.5h-9.1c-0.8,0-1.5,0.7-1.5,1.5s0.7,1.5,1.5,1.5h9.1c0.8,0,1.5-0.7,1.5-1.5S35.5,90.5,34.7,90.5z"/>
	<path class="st0" d="M49.1,56.6c-0.8,0-1.5,0.7-1.5,1.5s0.7,1.5,1.5,1.5h6.6c0.8,0,1.5-0.7,1.5-1.5s-0.7-1.5-1.5-1.5H49.1z"/>
	<path class="st0" d="M19.1,56.3c-1,0-1.8,0.8-1.8,1.8s0.8,1.8,1.8,1.8s1.8-0.8,1.8-1.8S20.1,56.3,19.1,56.3z"/>
	<path class="st0" d="M19.1,62.9c-1,0-1.8,0.8-1.8,1.8c0,1,0.8,1.8,1.8,1.8s1.8-0.8,1.8-1.8C20.9,63.7,20.1,62.9,19.1,62.9z"/>
	<path class="st0" d="M19.1,69.6c-1,0-1.8,0.8-1.8,1.8s0.8,1.8,1.8,1.8s1.8-0.8,1.8-1.8S20.1,69.6,19.1,69.6z"/>
	<path class="st0" d="M19.1,76.2c-1,0-1.8,0.8-1.8,1.8s0.8,1.8,1.8,1.8s1.8-0.8,1.8-1.8S20.1,76.2,19.1,76.2z"/>
	<path class="st0" d="M19.1,82.9c-1,0-1.8,0.8-1.8,1.8s0.8,1.8,1.8,1.8s1.8-0.8,1.8-1.8C20.9,83.7,20.1,82.9,19.1,82.9z"/>
	<path class="st0" d="M19.1,89.5c-1,0-1.8,0.8-1.8,1.8s0.8,1.8,1.8,1.8s1.8-0.8,1.8-1.8S20.1,89.5,19.1,89.5z"/>
	<path class="st0" d="M16.6,13.7c-1,0-1.8,0.8-1.8,1.8s0.8,1.8,1.8,1.8s1.8-0.8,1.8-1.8S17.6,13.7,16.6,13.7z"/>
	<path class="st0" d="M23.2,13.7c-1,0-1.8,0.8-1.8,1.8s0.8,1.8,1.8,1.8s1.8-0.8,1.8-1.8S24.2,13.7,23.2,13.7z"/>
	<path class="st0" d="M29.9,13.7c-1,0-1.8,0.8-1.8,1.8s0.8,1.8,1.8,1.8s1.8-0.8,1.8-1.8C31.7,14.5,30.9,13.7,29.9,13.7z"/>
	<path class="st1" d="M43.8,50.3C43.8,50.3,43.7,50.3,43.8,50.3"/>
	<path class="st0" d="M43.9,50.1v-4.6v-0.1l-7.5-5.8l-0.8-0.2l0.8-0.2l7.5-5.9v-0.1v-4.6l-0.1-0.1h-0.1l-10.7,9v0.1v3.6v0.1l10.8,9
		C43.9,50.3,43.9,50.2,43.9,50.1z"/>
	<path class="st0" d="M47.2,49.6h4h0.1l10.4-19.9v-0.1c0-0.1-0.1-0.1-0.1-0.1h-4l-0.1,0.1L47.1,49.4v0.1
		C47.1,49.6,47.2,49.6,47.2,49.6z"/>
	<path class="st1" d="M65.6,50.8L65.6,50.8"/>
	<path class="st0" d="M72.9,40.2l0.7,0.3l-0.7,0.2l-7.4,5.6v0.1v4.3c0,0,0,0.1,0.1,0.1l10.5-8.4v-0.1v-0.1v-3.4v-0.1l-10.5-8.5h-0.1
		c-0.1,0-0.1,0.1-0.1,0.1v4.3l0.1,0.1L72.9,40.2z"/>
	<path class="st0" d="M95.4,76.6H81c0-1,0-2.4,0-4.1c0-3.1,3.6-3.2,4-3.2c0.5,0,4,0.1,4,3.2h4v-0.6c0,0-1.1-6-8-6.3
		c-7,0.2-8.1,6.3-8.1,6.3v4.7h-2.2c-0.8,0-1.5,0.7-1.5,1.5v17.4c0,0.8,0.7,1.5,1.5,1.5h20.7c0.8,0,1.5-0.7,1.5-1.5V78.1
		C96.9,77.3,96.2,76.6,95.4,76.6z M93.9,94H76.2V79.6h17.7C93.9,79.6,93.9,94,93.9,94z"/>
	<path class="st0" d="M83.6,87.4c-0.1,0.3-0.1,0.6-0.1,0.9c0,1.4,0.5,2.5,1.2,2.5c0.6,0,1.2-1.1,1.2-2.5c0-0.3-0.1-0.6-0.1-0.9
		c0.7-0.4,1.2-1.1,1.3-1.9c0-1.4-1.2-2.6-2.7-2.3c-1,0.1-1.7,0.9-1.9,1.8C82.3,86,82.8,86.9,83.6,87.4z"/>
</g>
</svg>
