<?xml version="1.0" encoding="utf-8"?>
<!-- Generator: Adobe Illustrator 26.5.0, SVG Export Plug-In . SVG Version: 6.00 Build 0)  -->
<svg version="1.1" id="Calque_1" xmlns="http://www.w3.org/2000/svg" xmlns:xlink="http://www.w3.org/1999/xlink" x="0px" y="0px"
	 viewBox="0 0 113.4 113.4" style="enable-background:new 0 0 113.4 113.4;" xml:space="preserve">
<style type="text/css">
	.st0{fill:#BA1A1D;}
</style>
<g>
	<path class="st0" d="M71.7,72.2c-1.5-2.7-4.5-3.9-6.4-4.5v-0.1c6.5-3.2,9.5-9.7,10.5-14.5c5.1-2.3,6.4-5.8,7-10.8
		c0.2-1.7-0.4-3.2-1.3-4.5c2.3-8.5-1.3-17.1-1.5-17.4c0-0.1-0.1-0.1-0.1-0.2C72.3,6.5,54.5,7.7,40.5,13.3c-10,4-8.1,21.2-7.5,25
		c-0.7,1.1-1.3,2.4-1.6,3.9c-0.9,5.2,4,9.3,6.1,10.9c0.8,5,3.8,12.2,11.4,15.1v0.1c-2.7,0.8-4.8,2.7-5.8,3.7
		c-5.9,0.6-15.7,4.6-16.1,16.2v10.9c-0.2,1.4,0.4,4,3.8,5.2c0.2,0.1,0.5,0.1,0.7,0.1h49.9c0.1,0,0.2,0,0.3,0
		c1.8-0.3,5.2-1.9,5.2-6.4V87.1C86.9,87,86.6,74.7,71.7,72.2z M52.9,69.2c1,0.2,2.1,0.3,3.3,0.3c0.1,0,0.2,0,0.3,0
		c1.7,0,3.3-0.2,4.7-0.5c0,0,0,0,0,0.1c0,0.3,0,0.6,0.1,0.8v3.5c0,0.4-0.5,3-4.8,3c-3,0-3.5-2.2-3.6-3V69.2z M76.1,48.3v-10
		c1.5,0.8,2.9,2,2.7,3.5C78.5,45.1,77.9,46.9,76.1,48.3z M41.9,17.1c4.3-1.7,26.2-9.6,34.5,4.9c0.3,0.8,2.6,6.7,1.6,12.9
		c-0.7-0.4-1.3-0.7-1.9-0.9c0-1.9-0.4-7.5-3.5-10.7c-1.4-1.5-3.3-2.3-5.4-2.3c-2.5,0-4.1,0.4-5.2,1.3c-0.9,0.6-1.4,1.3-1.8,1.8
		c-0.3,0.4-0.5,0.7-1,1c-0.5,0.4-1.4,0.6-2.5,0.6c-1.6,0-2.3-0.7-3.5-1.8c-2.3-2.2-4.9-4-10.6-1.3c-4.2,1.9-4.6,5.7-5.1,10.5
		c0,0.4-0.1,0.8-0.1,1.2c-0.2,0.1-0.5,0.3-0.8,0.5C36,28.6,36.5,19.2,41.9,17.1z M35.3,43c0.2-1.4,0.9-2.5,1.7-3.3
		c-0.1,2.4-0.1,4.9,0.1,7.7C35.9,46,35,44.4,35.3,43z M41.4,52.1c0-0.2,0-0.4-0.1-0.6c0-0.2,0-0.3,0-0.3c-0.5-6.1-0.5-10.7-0.1-15
		c0.1-0.3,0.2-0.7,0.1-1c0-0.1,0-0.1,0-0.2l0,0c0.1-0.5,0.1-1,0.2-1.5c0.5-4.8,0.8-6.4,2.8-7.3c1.5-0.7,2.5-1,3.3-1
		c1.2,0,1.9,0.7,2.8,1.5c1.3,1.2,3.1,2.9,6.3,2.9c1.9,0,3.5-0.4,4.7-1.2c1-0.7,1.6-1.4,2-1.9c0.3-0.4,0.5-0.7,0.9-1s1.4-0.5,2.9-0.5
		c0.7,0,2.9,0,4.2,4.3c0.8,2.5,0.7,5.2,0.7,5.2V51c-0.1,1.1-1.5,9.9-9.2,13.3c-0.2,0-0.5,0.1-0.7,0.3c-1.7,0.6-3.7,1-6,1
		c-1.7,0-3.1-0.2-4.5-0.6c-0.2-0.1-0.4-0.2-0.6-0.2C43.5,62.3,41.8,54.7,41.4,52.1z M48.9,72.6v0.9v0.1c0.1,2.3,1.9,6.8,7.6,6.8
		c6.6,0,8.7-4.4,8.8-6.8v-0.1v-1.6c1.2,0.5,2.5,1.2,3,2.4c-0.7,2.3-3.6,9.6-11.5,9.8c-7.6,0.2-10-7-10.6-9.5
		C46.8,74,47.8,73.2,48.9,72.6z M57,88.1c0.2,0,0.4,0,0.6,0l3.1,12.5h-7l2.9-12.5C56.6,88.1,56.8,88.1,57,88.1z M31,99.8
		c0.1-0.2,0-0.2,0-0.4v-11c0.3-9.1,8-11.5,11.5-12.2c1.1,4.1,4.1,9.6,10,11.3l-3,13.1H31.9C31.3,100.3,31,100,31,99.8z M82.9,98.2
		c0,1.8-1.1,2.3-1.7,2.4H64.8l-3.3-13.3c5.8-2,9.1-7.2,10.4-11c10.7,2.2,11,10.5,11,10.8V98.2z"/>
	<path class="st0" d="M61.9,43.3c1.9-1.5,5.3,0.2,5.3,0.2c0.3,0.2,0.6,0.2,0.9,0.2c0.7,0,1.4-0.4,1.8-1.1c0.5-1,0.2-2.2-0.8-2.7
		c-0.2-0.1-5.7-3-9.7,0.2c-0.9,0.7-1,1.9-0.3,2.8C59.8,43.8,61.1,44,61.9,43.3z"/>
	<path class="st0" d="M53.1,51.5c0.3,0.8,1.2,1.8,3.2,2c0.1,0,0.1,0,0.2,0c1,0,1.9-0.8,2-1.8c0.1-0.9-0.4-1.7-1.2-2
		c0-0.1,0.1-0.1,0.1-0.2c0,0,0,0,0-0.1l0.9-1.9c0.5-1,0-2.2-1-2.7s-2.2,0-2.7,1l-0.8,1.7C53.4,48.2,52.4,49.8,53.1,51.5z"/>
	<path class="st0" d="M56,60.8c2,0,4.4-0.5,6.8-2c0.9-0.6,1.2-1.8,0.6-2.8c-0.6-0.9-1.8-1.2-2.8-0.6c-4.2,2.7-8.3,0.6-8.5,0.5
		c-1-0.5-2.2-0.2-2.7,0.8s-0.2,2.2,0.8,2.7C50.4,59.5,52.8,60.8,56,60.8z"/>
	<path class="st0" d="M52.2,44.3c0.7,0,1.4-0.4,1.8-1.1c0.5-1,0.2-2.2-0.8-2.7c-0.2-0.1-5.7-3-9.7,0.2c-0.9,0.7-1,1.9-0.3,2.8
		c0.7,0.9,1.9,1,2.8,0.3c1.9-1.5,5.2,0.2,5.3,0.2C51.6,44.2,51.9,44.3,52.2,44.3z"/>
</g>
</svg>
