<?xml version="1.0" encoding="utf-8"?>
<!-- Generator: Adobe Illustrator 26.5.0, SVG Export Plug-In . SVG Version: 6.00 Build 0)  -->
<svg version="1.1" id="Calque_1" xmlns="http://www.w3.org/2000/svg" xmlns:xlink="http://www.w3.org/1999/xlink" x="0px" y="0px"
	 viewBox="0 0 113.4 113.4" style="enable-background:new 0 0 113.4 113.4;" xml:space="preserve">
<style type="text/css">
	.st0{fill:#BA191A;}
</style>
<g>
	<path class="st0" d="M109.8,50.8c-0.1-11.7-13.1-18.5-16.6-20.1c-0.7-4.7-2.6-8.3-5.8-10.5c-4.4-3.2-9.9-2.8-12-2.5
		C69.8,11.3,63.7,8,57.1,8c-9.8,0-17.3,7.3-19.5,9.8c-3.8-1.1-7.3-0.7-10.3,1C21.8,22,19.6,28.9,19,31.1c-3.6,1.9-20.4,12-14.9,29
		c6.1,18.8,28.8,17.1,29,17.1c0.9-0.1,1.5-0.8,1.4-1.6c-0.1-0.9-0.8-1.5-1.6-1.4C32,74.2,12.4,75.6,7,59.1
		C1.7,42.7,20.2,33.8,21,33.4c0.4-0.2,0.7-0.6,0.8-1.1c0.1-0.1,1.8-7.9,7.1-11c2.5-1.5,5.4-1.6,8.8-0.5c0.6,0.2,1.2,0,1.6-0.5
		c0-0.1,7.8-9.3,17.8-9.3c5.9,0,11.4,3.2,16.6,9.4c0.4,0.4,1,0.6,1.5,0.5c0,0,6.1-1.2,10.5,1.9c2.6,1.8,4.2,4.9,4.7,9.2
		c0,0.5,0.4,1,0.9,1.2c0.2,0,15.5,6.5,15.6,17.7c0.1,6.5-0.5,13.1-5,17.5c-4.4,4.3-10.3,6.2-22.1,5.7c-0.1,0-0.1,0-0.1,0
		c-0.8,0-1.5,0.6-1.5,1.4c-0.1,0.9,0.6,1.6,1.4,1.6c1.2,0.1,0.4,0.1,1.5,0.1c10.7,0,18.2-2.2,22.8-6.7
		C109.2,65.4,109.9,58,109.8,50.8z"/>
	<path class="st0" d="M34.8,93.9c0,0.8,0.7,1.5,1.5,1.5h13.9c0.4,0,0.8-0.1,1.1-0.4c0.2-0.3,0.4-0.7,0.4-1.1l-0.1-12.2h3.6v5.1
		c0,0.8,0.7,1.5,1.5,1.5s1.5-0.7,1.5-1.5v-5.1h3.6v12.2c0,0.8,0.7,1.5,1.5,1.5h12.3c0.8,0,1.5-0.7,1.5-1.5V69c0-0.3-0.1-0.6-0.3-0.9
		l5,3.6c0.3,0.2,0.6,0.3,0.9,0.3c0.5,0,0.9-0.2,1.2-0.6c0.4-0.7,0.3-1.6-0.4-2.1l-26-18.5c-0.5-0.3-1.2-0.3-1.7,0l-27.2,18
		c-0.7,0.5-0.9,1.4-0.4,2.1s1.4,0.9,2.1,0.4l4.5-3c0,0.1,0,0.2,0,0.3C34.8,68.6,34.8,93.9,34.8,93.9z M56.7,53.8L76,67.6
		c-0.1,0-0.3-0.1-0.4-0.1c-0.8,0-1.5,0.7-1.5,1.5v23.4h-9.3V80.2c0-0.8-0.7-1.5-1.5-1.5h-5.1v-0.8h6.7c2,0,3.7-1.7,3.7-3.7v-3
		c0-2-1.7-3.7-3.7-3.7H47.7c-2,0-3.7,1.7-3.7,3.7v3c0,2,1.7,3.7,3.7,3.7h7.5v0.8h-5.1c-0.4,0-0.8,0.1-1.1,0.4
		c-0.2,0.3-0.4,0.7-0.4,1.1l0.1,12.2H37.8V68.6c0-0.7-0.5-1.3-1.2-1.5L56.7,53.8z M47.7,74.9c-0.4,0-0.7-0.3-0.7-0.7v-3
		c0-0.4,0.3-0.7,0.7-0.7h17.2c0.4,0,0.7,0.3,0.7,0.7v3c0,0.4-0.3,0.7-0.7,0.7H47.7z"/>
	<path class="st0" d="M94.2,98H62.1c-0.5-1.9-2-3.4-3.9-3.9v-3c0-0.8-0.7-1.5-1.5-1.5s-1.5,0.7-1.5,1.5v3c-1.9,0.5-3.4,2-3.9,3.9
		h-32c-0.8,0-1.5,0.7-1.5,1.5s0.7,1.5,1.5,1.5h32c0.7,2.4,2.8,4.1,5.4,4.1c2.6,0,4.7-1.7,5.4-4.1h32.1c0.8,0,1.5-0.7,1.5-1.5
		S95,98,94.2,98z M56.7,102.1c-1.4,0-2.6-1.2-2.6-2.6s1.2-2.6,2.6-2.6c1.4,0,2.6,1.2,2.6,2.6S58.1,102.1,56.7,102.1z"/>
	<path class="st0" d="M64.4,72.2h-3.9c-0.3,0-0.5,0.2-0.5,0.5s0.2,0.5,0.5,0.5h3.9c0.3,0,0.5-0.2,0.5-0.5S64.7,72.2,64.4,72.2z"/>
	<path class="st0" d="M58.4,71.7c-0.5,0-0.9,0.4-0.9,1s0.4,1,0.9,1s0.9-0.4,0.9-1C59.3,72.1,58.9,71.7,58.4,71.7z"/>
</g>
</svg>
