<?xml version="1.0" encoding="utf-8"?>
<!-- Generator: Adobe Illustrator 27.3.1, SVG Export Plug-In . SVG Version: 6.00 Build 0)  -->
<svg version="1.1" id="Calque_1" xmlns="http://www.w3.org/2000/svg" xmlns:xlink="http://www.w3.org/1999/xlink" x="0px" y="0px"
	 viewBox="0 0 113.4 113.4" style="enable-background:new 0 0 113.4 113.4;" xml:space="preserve">
<style type="text/css">
	.st0{fill:#B91818;}
</style>
<g>
	<path class="st0" d="M62.5,46.3c-3.7-2.1-8.1-2-11.6-0.1c0.6,0.2,1.1,0.4,1.6,0.9c1.8,1.5,2,4.2,0.4,5.9c-1.5,1.8-4.2,2-5.9,0.4
		c-0.5-0.5-0.9-1-1.2-1.7c-2.4,5.4-0.3,11.8,4.9,14.8c5.6,3.2,12.8,1.3,16-4.3C70.1,56.7,68.1,49.5,62.5,46.3z"/>
</g>
<path class="st0" d="M9.5,53.7c0,0,40.4-19.4,47.4-21.2c0,0,40.5,17.4,44.8,20.8c0,0-39.9-16.1-46.2-16.5
	C55.5,36.8,16.1,50.6,9.5,53.7z"/>
<path class="st0" d="M5.8,58.3c0,0,45.4,16.3,50.1,16.7c0,0,44-13.8,53.3-18.3c0,0-22.1,13.3-53.4,25.4
	C55.9,82.2,33.8,72.8,5.8,58.3z"/>
</svg>
