<?xml version="1.0" encoding="utf-8"?>
<!-- Generator: Adobe Illustrator 27.3.1, SVG Export Plug-In . SVG Version: 6.00 Build 0)  -->
<svg version="1.1" id="Calque_1" xmlns="http://www.w3.org/2000/svg" xmlns:xlink="http://www.w3.org/1999/xlink" x="0px" y="0px"
	 viewBox="0 0 355.8 116.3" style="enable-background:new 0 0 355.8 116.3;" xml:space="preserve">
<style type="text/css">
	.st0{fill:#B91818;}
</style>
<g id="Calque_3">
</g>
<path class="st0" d="M339.4,43.1c3-1.2,4.9-3.9,4.9-7.7c0-5.2-3.2-8.6-8.6-8.6h-0.5h-3.3h-1.4l-10.6,18.1l-10.6-18.1h-5l13.5,22.5
	c0.5,0.8,1.1,1.3,2,1.3c0.8,0,1.4-0.5,2-1.3L332.9,31h3c2.9,0,4.5,1.4,4.5,4.5s-1.5,4.8-4.5,4.8h-5.1l-2.4,3.6h6.5l6,6.5h5.8
	L339.4,43.1z"/>
<polygon class="st0" points="205.4,91.1 162.6,58.3 204.5,26.7 191.7,26.7 156.4,54.2 153.8,56.2 153.8,26.7 145.3,26.7 145.3,91.1 
	153.8,91.1 153.8,60.2 192.6,91.1 "/>
<path class="st0" d="M246.9,74.6l10,16.5h9.6l-37.1-61.8c-1.3-2.1-2.6-3-4.4-3c-1.8,0-3,0.8-4.3,3l-28.1,47.5l7,5.5l4.4-7.7H246.9z
	 M225.6,38.1l16.9,29.5h-34.6L225.6,38.1z"/>
<g>
	<path class="st0" d="M295,29.4c-1.3-2.1-2.6-3.1-4.4-3.1c-1.8,0-3,0.8-4.3,3l-26.8,45.1l5.1,8.6l4.6-8.1H315l10.6,16h10.2L295,29.4
		z M273.3,68L291,38.4L310.1,68H273.3z"/>
	<path class="st0" d="M133.6,78l-50-49.6c-1.7-1.7-2.7-1.9-3.9-1.9c-4,0-4.4,3.8-4.4,5.5v16.2l8,13.2V39.9l49.9,50
		c1.4,1.4,2.7,2,4.3,2c2.6,0,4.3-2,4.3-5.5V26.7h-8V78H133.6z"/>
	<path class="st0" d="M55.8,26.4c-1.8,0-3.1,1-4.4,3l-37,61.8h9.6l31.3-53l17.7,29.8H55.8L52,74.2h24.9l10,16.9h10.5L60.1,29.3
		C58.9,27.2,57.6,26.4,55.8,26.4z"/>
</g>
</svg>
