<?xml version="1.0" encoding="utf-8"?>
<!-- Generator: Adobe Illustrator 27.3.1, SVG Export Plug-In . SVG Version: 6.00 Build 0)  -->
<svg version="1.1" id="Calque_1" xmlns="http://www.w3.org/2000/svg" xmlns:xlink="http://www.w3.org/1999/xlink" x="0px" y="0px"
	 viewBox="0 0 113.4 113.4" style="enable-background:new 0 0 113.4 113.4;" xml:space="preserve">
<style type="text/css">
	.st0{fill:#B91818;}
</style>
<path class="st0" d="M19.2,46.9c1.1,2.7,2.7,5.1,5.1,7.1c7.7,6.4,19,5.3,25.4-2.3c6.4-7.7,5.3-19-2.3-25.4c-2.1-1.8-4.5-2.9-7-3.5
	c14.8-8.7,33.7-9.5,49.8-0.6c5.3,2.9,9.8,6.7,13.6,11C94.5,18.3,77.9,8.6,59.1,8.9C30.6,9.4,7.9,32.9,8.4,61.4
	c0.3,18.2,10,34.1,24.5,43C16.5,90.4,10.8,67.1,19.2,46.9z"/>
</svg>
