<?xml version="1.0" encoding="utf-8"?>
<!-- Generator: Adobe Illustrator 27.3.1, SVG Export Plug-In . SVG Version: 6.00 Build 0)  -->
<svg version="1.1" id="Calque_1" xmlns="http://www.w3.org/2000/svg" xmlns:xlink="http://www.w3.org/1999/xlink" x="0px" y="0px"
	 viewBox="0 0 355.8 116.3" style="enable-background:new 0 0 355.8 116.3;" xml:space="preserve">
<style type="text/css">
	.st0{fill:#BA1818;}
	.st1{font-family:'Roboto-Light';}
	.st2{font-size:12.6293px;}
	.st3{letter-spacing:3.2;}
	.st4{fill:#B91818;}
	.st5{fill:none;}
</style>
<g id="Calque_1_00000034055234302766662440000010742544918578172816_">
	<text transform="matrix(0.9477 0 0 1 91.042 106.7041)" class="st0 st1 st2 st3">w</text>
	<text transform="matrix(0.9477 0 0 1 104.8877 106.7041)" class="st0 st1 st2">w</text>
	<text transform="matrix(0.9477 0 0 1 118.7373 106.7041)" class="st0 st1 st2">w</text>
	<text transform="matrix(0.9477 0 0 1 131.8545 106.7041)" class="st0 st1 st2 st3">.</text>
	<text transform="matrix(0.9477 0 0 1 139.4805 106.7041)" class="st0 st1 st2">a</text>
	<text transform="matrix(0.9477 0 0 1 150.7295 106.7041)" class="st0 st1 st2">n</text>
	<text transform="matrix(0.9477 0 0 1 162.1602 106.7041)" class="st0 st1 st2 st3">k</text>
	<text transform="matrix(0.9477 0 0 1 172.7959 106.7041)" class="st0 st1 st2 st3">a</text>
	<text transform="matrix(0.9477 0 0 1 184.0332 106.7041)" class="st0 st1 st2">a</text>
	<text transform="matrix(0.9477 0 0 1 195.2783 106.7041)" class="st0 st1 st2">-</text>
	<text transform="matrix(0.9477 0 0 1 205.0684 106.7041)" class="st0 st1 st2">v</text>
	<text transform="matrix(0.9477 0 0 1 215.71 106.7041)" class="st0 st1 st2">r</text>
	<text transform="matrix(0.9477 0 0 1 223.8486 106.7041)" class="st0 st1 st2">.</text>
	<text transform="matrix(0.9477 0 0 1 231.4961 106.7041)" class="st0 st1 st2 st3">c</text>
	<text transform="matrix(0.9477 0 0 1 242.4326 106.7041)" class="st0 st1 st2">o</text>
	<text transform="matrix(0.9477 0 0 1 253.8789 106.7041)" class="st0 st1 st2">m</text>
</g>
<g id="Calque_3">
</g>
<g id="Calque_4">
</g>
<path class="st4" d="M340,38.7c3.1-1.1,4.9-3.9,4.9-7.9c0-5.3-3.2-8.7-8.7-8.7h-0.5h-3.3h-1.5l-10.8,18.5l-10.9-18.5h-5.1L318,45
	c0.5,0.9,1.1,1.4,2,1.4c0.8,0,1.5-0.6,2-1.4l11.2-18.8h3c2.9,0,4.6,1.5,4.6,4.6s-1.6,4.8-4.6,4.8h-5.3l-2.4,3.7h6.7l6.1,6.7h5.9
	L340,38.7z"/>
<polygon class="st4" points="203.2,87.8 159.5,54.3 202.3,22 189.2,22 153.2,50.1 150.6,52.2 150.6,22 141.8,22 141.8,87.8 
	150.6,87.8 150.6,56.2 190.2,87.8 "/>
<path class="st4" d="M245.6,70.9l10.2,17h9.9l-37.9-63.1c-1.3-2.1-2.7-3.1-4.5-3.1s-3.1,0.9-4.4,3.1l-28.8,48.5l7.2,5.6l4.5-7.9
	L245.6,70.9L245.6,70.9z M223.8,33.7l17.3,30.1h-35.4L223.8,33.7z"/>
<g>
	<polygon class="st5" points="272.6,64.1 310.2,64.1 290.6,33.9 	"/>
	<path class="st4" d="M336.4,87.6l-41.7-62.8c-1.3-2.2-2.7-3.1-4.5-3.1s-3.1,0.9-4.4,3.1l-27.3,46.1l5.2,8.7l4.8-8.3h46.6L326,87.6
		H336.4z M272.6,64.1l18-30.3l19.6,30.3H272.6z"/>
	<path class="st4" d="M129.8,74.4l-51-50.6c-1.6-1.6-2.8-2-4-2c-4.1,0-4.5,3.9-4.5,5.6v16.5l8.2,13.6v-22l50.9,51.2
		c1.4,1.4,2.8,2.1,4.3,2.1c2.7,0,4.3-2.1,4.3-5.6V22h-8.2V74.4z"/>
	<path class="st4" d="M50.6,21.7c-1.8,0-3.2,0.9-4.5,3.1l-37.9,63h9.9l32-54.1l18.1,30.4H50.5l-3.9,6.5H72l10.3,17.2H93L55,24.7
		C53.6,22.5,52.4,21.7,50.6,21.7z"/>
</g>
</svg>
