<?xml version="1.0" encoding="utf-8"?>
<!-- Generator: Adobe Illustrator 27.3.1, SVG Export Plug-In . SVG Version: 6.00 Build 0)  -->
<svg version="1.1" id="Calque_1" xmlns="http://www.w3.org/2000/svg" xmlns:xlink="http://www.w3.org/1999/xlink" x="0px" y="0px"
	 viewBox="0 0 113.4 113.4" style="enable-background:new 0 0 113.4 113.4;" xml:space="preserve">
<style type="text/css">
	.st0{fill:#B91818;}
</style>
<g>
	<path class="st0" d="M101.3,47.7c0.2,0,0.4-0.1,0.5-0.2c0.5-0.4,0.6-1.2,0.2-1.7s-1.2-0.6-1.7-0.2c-0.1,0.1-0.3,0.3-0.3,0.4
		c-0.3-1.1-0.1-2.3,0.7-3.2c0.3-0.3,0.6-0.5,0.9-0.7c-1.1,0.4-2,1.3-2.2,2.5c-0.4,1.9,0.8,3.7,2.7,4c1.2,0.2,2.4-0.2,3.1-1
		C104.1,48.5,102.5,48.5,101.3,47.7z"/>
	<path class="st0" d="M46.6,76c10.8,5.1,23.8,1.1,29.9-9.4c0.8-1.4,1.5-2.9,1.9-4.4c-4.8,2.4-9.9,4.8-15.1,7.1
		C57.9,71.7,52.2,74,46.6,76z"/>
	<path class="st0" d="M109.4,36.3c-0.9-1.2-3-1.7-6.1-1.7c-6.2,0-16.5,2.2-28.6,6.1c-1.8-2.3-4-4.2-6.7-5.8c-7.3-4.2-16-4-22.9-0.1
		c1.1,0.3,2.2,0.9,3.2,1.7c3.5,3,3.9,8.2,0.9,11.7c-3,3.5-8.2,3.9-11.7,0.9c-1.1-0.9-1.8-2.1-2.3-3.3c-1.7,3.9-2.2,8.1-1.7,12.1
		C16.3,66.6,4.2,75.3,2.9,80.2c-0.2,0.8-0.1,1.5,0.3,2c3.6,5,30.5-1.2,59.8-13.9C77.5,62,90.8,54.8,99.4,48.7
		c-0.4-0.3-0.7-0.7-0.9-1.2C89.9,53.6,75.9,61.2,62,67.2c-23,10-52.4,18-55.7,13.4c-0.3-0.5-0.4-1-0.2-1.7
		c1.2-4.3,13.2-12.2,27.6-19.6c1.1,5.5,4.1,10.6,8.9,14.2c6.1-2.1,12.6-4.5,19-7.3c6.1-2.6,12.2-5.6,17.9-8.6
		c0.6-5.5-0.8-11.1-3.9-15.7c15.8-5.1,29.2-7.6,31.4-4.6c0.8,1.1,0.1,2.7-1.9,4.8c0.4,0.3,0.8,0.7,1,1.2
		C108.4,41,110.7,38.1,109.4,36.3z"/>
</g>
</svg>
