<?xml version="1.0" encoding="UTF-8"?>
<svg id="Calque_1" xmlns="http://www.w3.org/2000/svg" version="1.1" viewBox="0 0 141.7 141.7">
  <!-- Generator: Adobe Illustrator 29.4.0, SVG Export Plug-In . SVG Version: 2.1.0 Build 152)  -->
  <defs>
    <style>
      .st0 {
        fill: #34b8c6;
      }
    </style>
  </defs>
  <path class="st0" d="M109.9,21.7c-9.1-9.5-21.9-14.2-38.4-14.2s-29.4,4.7-38.4,14.2c-9.1,9.5-13.6,22.9-13.6,40.1v20.6c0,17.4,4.5,31,13.6,40.6,9.1,9.6,21.9,14.4,38.4,14.4s7.4-.3,10.8-.8c-2.7-1.8-4.7-3.9-6-5.6-6.9-9-14.6-19.9-25.7-22.8-2.7-.7-4.9-3.1-5.1-6.1-.2-3,1.6-5.5,4.2-6.3,1-.3,2-.3,3,0,4.8,1.2,9.5,3.4,13.6,6.4l-11.1-36.7c-1.1-3.7.8-7.5,4.3-8.4,3.4-.9,6.9,1.4,7.9,5l7.3,24.2c-1.1-3.7.8-7.5,4.3-8.4,3.4-.9,6.9,1.4,7.9,5l.5,1.6c-1.1-3.7.8-7.5,4.3-8.4,3.4-.9,6.9,1.4,7.9,5l.2.6c.3-2.6,2.1-4.9,4.8-5.5,3.3-.8,6.7,1.5,7.7,5l1.7,5.6,5.7,19,.2.8c2.4-6.9,3.7-14.8,3.7-23.8v-20.9c0-17.3-4.5-30.7-13.6-40.1ZM39.2,54.7v-.4c.4-.6,1.1-1,1.7-.7l7.2,2.7c.6.2,1,1,.7,1.6v.4c-.4.6-1.1,1-1.7.7l-7.2-2.7c-.6-.2-1-1-.7-1.6ZM48.6,68.8l-7,3.2c-.6.3-1.4,0-1.7-.6l-.2-.3c-.3-.6,0-1.4.6-1.7l7-3.2c.6-.3,1.4,0,1.7.6l.2.3c.3.6,0,1.4-.6,1.7ZM55,51.6l-.3.2c-.6.3-1.4,0-1.7-.6l-3.2-7c-.3-.6,0-1.4.6-1.7l.3-.2c.6-.3,1.4,0,1.7.6l3.2,7c.3.6,0,1.4-.6,1.7ZM68.2,43.4l-2.7,7.2c-.2.6-1,1-1.6.7h-.4c-.6-.4-1-1.1-.7-1.7l2.7-7.2c.2-.6,1-1,1.6-.7h.4c.6.4,1,1.1.7,1.7ZM78.9,54.9l-7,3.2c-.6.3-1.4,0-1.7-.6l-.2-.3c-.3-.6,0-1.4.6-1.7l7-3.2c.6-.3,1.4,0,1.7.6l.2.3c.3.6,0,1.4-.6,1.7Z"/>
</svg>