<?xml version="1.0" encoding="UTF-8"?>
<svg id="Calque_1" xmlns="http://www.w3.org/2000/svg" version="1.1" viewBox="0 0 640.9 141.7">
  <!-- Generator: Adobe Illustrator 29.4.0, SVG Export Plug-In . SVG Version: 2.1.0 Build 152)  -->
  <defs>
    <style>
      .st0 {
        fill: #34b8c6;
      }
    </style>
  </defs>
  <g>
    <path class="st0" d="M129,62.8v-6.6c0-.7.5-1.2,1.2-1.2h24.4c.7,0,1.2.5,1.2,1.2v6.6c0,.7-.5,1.2-1.2,1.2h-24.4c-.7,0-1.2-.5-1.2-1.2ZM135.6,108.6c-.5,0-.8-.4-.8-.8v-60.1c0-4.7,1.1-8.3,3.3-10.6s5.5-3.6,10.1-3.6h6.9c.5,0,.8.4.8.8v8.3c0,.5-.4.8-.8.8h-6.7c-1.1,0-1.8.4-2.3,1.2-.5.8-.7,1.8-.7,2.9v60.2c0,.5-.4.8-.8.8h-8.9Z"/>
    <path class="st0" d="M176.4,33.5c.5,0,.8.4.8.8v60.4c0,1.3.3,2.3.9,3s1.4,1.1,2.4,1.1h4.1c.5,0,.8.4.8.8v8.3c0,.5-.4.8-.8.8h-5.4c-4,0-7-1.2-9.3-3.7-2.2-2.5-3.3-6-3.3-10.5v-60.3c0-.5.4-.8.8-.8h8.9Z"/>
    <path class="st0" d="M217.9,109.4c-7,0-12.5-2-16.3-6.1-3.9-4.1-5.8-9.8-5.8-17.2v-8.7c0-7.3,1.9-13,5.8-17.1,3.9-4,9.3-6,16.3-6s12.5,2,16.3,6c3.9,4,5.8,9.7,5.8,17.1v8.9c0,7.4-1.9,13.1-5.8,17.1-3.9,4-9.3,6.1-16.3,6.1ZM217.9,99.4c3.7,0,6.5-1.2,8.6-3.5,2-2.3,3-5.5,3-9.7v-8.9c0-4.2-1-7.4-3-9.7s-4.9-3.4-8.6-3.4-6.5,1.1-8.5,3.4c-2,2.3-3,5.5-3,9.7v8.9c0,4.2,1,7.4,3,9.7,2,2.3,4.9,3.5,8.5,3.5Z"/>
    <path class="st0" d="M264.7,108l-16-52c-.2-.5.2-1.1.8-1.1h9.2c.4,0,.7.3.8.6l8.7,34.9c.2.8,1.3.9,1.6,0l12.3-35.1c.1-.3.4-.6.8-.6h6.1c.4,0,.7.2.8.6l12.3,35.1c.3.8,1.4.7,1.6,0l8.7-34.9c0-.4.4-.6.8-.6h9.2c.6,0,1,.6.8,1.1l-16,52c-.1.4-.4.6-.8.6h-6.7c-.4,0-.7-.2-.8-.6l-12.1-34.2c-.3-.8-1.3-.8-1.6,0l-12.1,34.2c-.1.3-.4.6-.8.6h-6.7c-.4,0-.7-.2-.8-.6Z"/>
    <path class="st0" d="M330.7,63.1v-7.3c0-.5.4-.8.8-.8h25.1c.5,0,.8.4.8.8v7.3c0,.5-.4.8-.8.8h-25.1c-.5,0-.8-.4-.8-.8ZM337.2,108.6c-.5,0-.8-.4-.8-.8v-60.1c0-4.7,1.1-8.3,3.3-10.6s5.5-3.6,10.1-3.6h6.9c.5,0,.8.4.8.8v8.3c0,.5-.4.8-.8.8h-6.7c-1.1,0-1.8.4-2.3,1.2-.5.8-.7,1.8-.7,2.9v60.2c0,.5-.4.8-.8.8h-8.9Z"/>
    <path class="st0" d="M369.9,107.8v-52c0-.5.4-.8.8-.8h8.9c.5,0,.8.4.8.8v52c0,.5-.4.8-.8.8h-8.9c-.5,0-.8-.4-.8-.8Z"/>
    <path class="st0" d="M396.5,107.8v-52c0-.5.4-.8.8-.8h8.9c.5,0,.8.4.8.8v52c0,.5-.4.8-.8.8h-8.9c-.5,0-.8-.4-.8-.8ZM429.9,108.6c-.5,0-.8-.4-.8-.8v-31.7c0-3.8-1-6.7-2.9-8.8-1.9-2.1-4.7-3.1-8.3-3.1s-6.1.9-8,2.7c-1,1-2.7,3.9-3.2,5.2s-1.6-1.6-1.6-2.2l.9-5.4c0-.2,0-.3,0-.5,1.6-3.1,3.8-5.5,6.4-7.3,2.7-1.8,5.6-2.6,8.9-2.6,5.8,0,10.3,1.9,13.5,5.7,3.2,3.8,4.8,9.2,4.8,16.2v31.7c0,.5-.4.8-.8.8h-8.9Z"/>
    <path class="st0" d="M474.5,109.5c-5.9,0-10.5-1.9-13.7-5.7-3.2-3.8-4.8-9.2-4.8-16.1v-11.8c0-7,1.6-12.3,4.7-16.2,3.2-3.8,7.6-5.7,13.3-5.7s6.1.8,8.7,2.5,4.6,3.9,6.3,6.7c0,.2.1.3.1.5l-.5,5c0,.9-1.2,1.1-1.6.3s-.1-.3-.2-.4c-.8-1.6-2-2.9-3.6-3.7-1.6-.8-3.5-1.3-5.7-1.3-3.5,0-6.2,1.1-8.1,3.3s-2.9,5.2-2.9,9.1v11.7c0,3.9,1,6.9,2.9,9,1.9,2.1,4.6,3.2,8.1,3.2s4.1-.4,5.7-1.3c1.6-.9,2.8-2.1,3.6-3.8s0,0,0,0c.4-.8,1.6-.6,1.6.3l.3,4.9c0,.1,0,.3,0,.4-1,2.3-2.6,4.4-4.9,6.3-2.4,1.9-5.4,2.9-9.2,2.9ZM486.1,107.8V34.3c0-.5.4-.8.8-.8h8.9c.5,0,.8.4.8.8v73.5c0,.5-.4.8-.8.8h-8.9c-.5,0-.8-.4-.8-.8Z"/>
    <path class="st0" d="M534.6,109.4c-7.5,0-13.3-2.1-17.4-6.3-4.1-4.2-6.2-10.1-6.2-17.8v-6c0-8,2-14.2,5.9-18.6,3.9-4.4,9.5-6.6,16.7-6.6s12,2.5,15.7,7.4,5.6,11.9,5.6,20.9v2.7c0,.5-.4.8-.8.8h-34.5c-.5,0-.8-.4-.8-.8v-6.8c0-.5.4-.8.8-.8h24.4c.5,0,.9-.4.8-.9-.4-3.9-1.5-7-3.3-9.3-1.9-2.4-4.6-3.7-7.8-3.7s-7,1.3-9.3,3.9c-2.2,2.6-3.3,6.3-3.3,11.1v6.8c0,4.4,1.2,7.9,3.5,10.2,2.4,2.4,5.7,3.6,9.9,3.6s4.3-.4,6.4-1.3c1.9-.8,3.5-1.8,5-3.1s.8-.3,1.2,0l5.7,5.7c.3.3.3.9,0,1.2-2.5,2.3-5.3,4-8.3,5.3s-6.6,2.1-10,2.1Z"/>
    <path class="st0" d="M569.4,107.8v-52c0-.5.4-.8.8-.8h8.9c.5,0,.8.4.8.8v52c0,.5-.4.8-.8.8h-8.9c-.5,0-.8-.4-.8-.8ZM598.1,66.9c-.3.4-.9.5-1.3,0-.8-.8-1.8-1.4-2.9-1.9-1.4-.6-3-.9-4.9-.9-3.3,0-5.9.9-7.8,2.8-.7.7-1.3,1.6-1.7,2.5s-1.5.6-1.6-.3l-.5-4.6c0-.2,0-.3,0-.5,1.6-3.1,3.7-5.5,6.3-7.2,2.6-1.8,5.5-2.7,8.7-2.7s4.7.4,6.6,1.1c1.7.6,3.3,1.5,4.6,2.6s.4.8.1,1.1l-5.8,7.9Z"/>
  </g>
  <path class="st0" d="M375.2,45.8c-1.9,0-3.4-.5-4.4-1.4-1-.9-1.6-2.2-1.6-3.8v-1.9c0-1.6.5-2.9,1.6-3.8,1-.9,2.5-1.3,4.4-1.3s3.4.4,4.4,1.3c1,.9,1.6,2.2,1.6,3.8v2c0,1.6-.5,2.9-1.6,3.8-1,.9-2.5,1.4-4.4,1.4Z"/>
  <path class="st0" d="M99.3,42.5c-5.3-5.5-12.8-8.3-22.5-8.3s-17.2,2.8-22.5,8.3c-5.3,5.5-8,13.4-8,23.5v12c0,10.2,2.7,18.1,8,23.7,5.3,5.6,12.8,8.4,22.5,8.4s4.3-.2,6.3-.4c-1.6-1-2.8-2.3-3.5-3.3-4-5.3-8.6-11.6-15-13.3-1.6-.4-2.9-1.8-3-3.5-.1-1.8.9-3.2,2.4-3.7.6-.2,1.2-.2,1.8,0,2.8.7,5.5,2,7.9,3.7l-6.5-21.5c-.6-2.1.5-4.4,2.5-4.9,2-.5,4,.8,4.6,2.9l4.3,14.2c-.6-2.1.5-4.4,2.5-4.9,2-.5,4,.8,4.6,2.9l.3.9c-.6-2.1.5-4.4,2.5-4.9,2-.5,4,.8,4.6,2.9v.3c.3-1.5,1.3-2.9,2.9-3.2,1.9-.4,3.9.9,4.5,2.9l1,3.2,3.4,11.1v.5c1.6-4,2.3-8.7,2.3-13.9v-12.2c0-10.1-2.7-17.9-8-23.5ZM57.9,61.8v-.2c.2-.4.6-.6,1-.4l4.2,1.6c.4.1.6.6.4.9v.2c-.2.4-.6.6-1,.4l-4.2-1.6c-.4-.1-.6-.6-.4-.9ZM63.5,70l-4.1,1.9c-.4.2-.8,0-1-.4v-.2c-.3-.4-.1-.8.3-1l4.1-1.9c.4-.2.8,0,1,.4v.2c.3.4.1.8-.3,1ZM67.2,59.9h-.2c-.4.3-.8.1-1-.3l-1.9-4.1c-.2-.4,0-.8.4-1h.2c.4-.3.8-.1,1,.3l1.9,4.1c.2.4,0,.8-.4,1ZM74.9,55.1l-1.6,4.2c-.1.4-.6.6-.9.4h-.2c-.4-.2-.6-.6-.4-1l1.6-4.2c.1-.4.6-.6.9-.4h.2c.4.2.6.6.4,1ZM81.2,61.9l-4.1,1.9c-.4.2-.8,0-1-.4v-.2c-.3-.4-.1-.8.3-1l4.1-1.9c.4-.2.8,0,1,.4v.2c.3.4.1.8-.3,1Z"/>
</svg>