<?xml version="1.0" encoding="UTF-8"?>
<svg id="Calque_1" xmlns="http://www.w3.org/2000/svg" version="1.1" viewBox="0 0 1024 1024">
  <!-- Generator: Adobe Illustrator 29.4.0, SVG Export Plug-In . SVG Version: 2.1.0 Build 152)  -->
  <defs>
    <style>
      .st0 {
        fill: #fff;
      }

      .st1 {
        fill: #34b9c7;
      }
    </style>
  </defs>
  <rect class="st1" x="-34.1" y="-50.4" width="1109.7" height="1091.9"/>
  <path class="st0" d="M779.1,180.7c-61.8-64.6-149-96.9-261.6-96.9s-199.8,32.3-261.6,96.9c-61.8,64.6-92.7,155.7-92.7,273.2v139.9c0,118.7,30.9,210.7,92.7,276.1,61.8,65.4,149,98.1,261.6,98.1s50.2-1.8,73.4-5.2c-18.4-12-32.1-26.7-41-38.4-46.7-61.3-99.6-135.4-175.2-154.9-18.6-4.8-33.5-21.1-34.7-41.2-1.2-20.4,10.8-37.7,28.3-43,6.6-2,13.6-2.1,20.4-.5,32.9,8.1,64.4,22.9,92.6,43.3l-75.4-249.9c-7.5-24.9,5.6-50.8,29.3-57.1,22.9-6.1,46.7,9.8,54,34l49.7,164.8c-7.5-24.9,5.6-50.8,29.3-57.1,22.9-6.1,46.7,9.8,54,34l3.3,10.8c-7.5-24.9,5.6-50.8,29.3-57.1,22.9-6.1,46.7,9.8,54,34l1.2,3.9c2.1-18,14.3-33.4,32.4-37.6,22.5-5.2,45.4,10.5,52.6,34.2l11.4,37.8,39,129.4,1.7,5.6c16.5-46.8,24.9-100.8,24.9-161.9v-142.4c0-117.6-30.9-208.6-92.7-273.2ZM297.9,405.7l.9-2.4c1.6-4.4,6.5-6.7,11-5l49.3,18.3c4.4,1.6,6.7,6.5,5,11l-.9,2.4c-1.6,4.4-6.5,6.7-11,5l-49.3-18.3c-4.4-1.6-6.7-6.5-5-11ZM362.1,501.3l-47.8,21.9c-4.3,2-9.3,0-11.3-4.2l-1.1-2.4c-2-4.3,0-9.3,4.2-11.3l47.8-21.9c4.3-2,9.3,0,11.3,4.2l1.1,2.4c2,4.3,0,9.3-4.2,11.3ZM405.7,384.1l-2.4,1.1c-4.3,2-9.3,0-11.3-4.2l-21.9-47.8c-2-4.3,0-9.3,4.2-11.3l2.4-1.1c4.3-2,9.3,0,11.3,4.2l21.9,47.8c2,4.3,0,9.3-4.2,11.3ZM495.1,328.6l-18.3,49.3c-1.6,4.4-6.5,6.7-11,5l-2.4-.9c-4.4-1.6-6.7-6.5-5-11l18.3-49.3c1.6-4.4,6.5-6.7,11-5l2.4.9c4.4,1.6,6.7,6.5,5,11ZM568.3,406.9l-47.8,21.9c-4.3,2-9.3,0-11.3-4.2l-1.1-2.4c-2-4.3,0-9.3,4.2-11.3l47.8-21.9c4.3-2,9.3,0,11.3,4.2l1.1,2.4c2,4.3,0,9.3-4.2,11.3Z"/>
</svg>